<?xml version="1.0" encoding="utf-8"?>
<!-- Generator: Adobe Illustrator 15.0.0, SVG Export Plug-In . SVG Version: 6.00 Build 0)  -->
<!DOCTYPE svg PUBLIC "-//W3C//DTD SVG 1.1//EN" "http://www.w3.org/Graphics/SVG/1.1/DTD/svg11.dtd">
<svg version="1.1" id="Layer_1" xmlns="http://www.w3.org/2000/svg" xmlns:xlink="http://www.w3.org/1999/xlink" x="0px" y="0px"
	 width="40px" height="40px" viewBox="0 0 40 40" enable-background="new 0 0 40 40" xml:space="preserve">
<g>
	<defs>
		<rect id="SVGID_1_" x="0.875" y="2.015" width="38.375" height="36.985"/>
	</defs>
	<clipPath id="SVGID_2_">
		<use xlink:href="#SVGID_1_"  overflow="visible"/>
	</clipPath>
	<path clip-path="url(#SVGID_2_)" d="M38.858,22.584c0.187-0.57,0.322-1.238,0.373-2.021c0.062-0.968-0.026-2.024-0.283-3.124
		v-0.001c-0.39-1.669-1.174-3.438-2.417-5.146v-0.001c-0.436-0.595-0.925-1.183-1.475-1.755c-3.163-3.305-8.423-5.451-11.285-6.361
		c-2.863-0.91-8.783-1.938-11.111-2.068c-2.011-0.083-3.425-0.082-4.653-0.091v0.091c-3.39,1.988-4.796,5.612-5.352,7.29
		c-0.093,0.314-0.187,0.641-0.279,0.979C2.361,10.448,2.35,10.5,2.35,10.5l-0.01,0.008c-0.159,0.589-0.31,1.19-0.417,1.749
		c-0.001,0.01-0.003,0.019-0.006,0.03v0.003c-0.368,1.919-0.675,3.567-0.857,5.145v0.002c-0.199,1.709-0.253,3.338-0.083,5.144
		v0.003c0.094,0.998,0.256,2.055,0.5,3.21c0.152,0.719,0.307,1.351,0.48,1.939c0.397,1.353,0.891,2.488,1.665,3.989
		c1.122,2.168,2.19,3.524,4.145,4.985c2.314,1.73,5.067,2.492,7.06,2.246c2.571-0.315,4.599-0.776,5.888-3.07
		c2.148-3.82,0.077-6.404-1.713-6.475c-2.066-0.08-3.441,2.772-1.601,3.455c0.437,0.162,1.073-0.038,1.227-0.436
		c0.038-0.1,0.142-0.041,0.313,0.092c0.057,0.043,0.162,0.75-0.097,1.419c-0.748,1.94-2.237,2.2-3.257,2.228
		c-1.02,0.027-1.973-0.38-2.065-0.472c-0.092-0.092-0.062-0.13,0.038-0.54c0.121-0.497,0.409-2.533,0.641-5.145
		c0.073-0.827,0.122-1.564,0.125-2.278c0.001-1.17-0.121-2.273-0.467-3.592c-0.088-0.332-0.254-0.903-0.525-1.557
		c-0.703-1.678-2.115-3.895-4.722-3.954c-1.81-0.04-2.333,1.372-2.333,1.709c0,0.34,0.082,1.498,1.251,1.543
		c0.604,0.021,1.056-0.408,0.881-0.711c-0.174-0.305-0.006-0.291,0.079-0.369c0.113-0.107,1.186-0.063,0.202,1.387
		C8.61,22.309,8.534,22.44,8.46,22.584H8.457c-0.602,1.185-0.974,3.16-1.16,5.147v0.001c-0.007,0.066-0.013,0.135-0.019,0.201
		c-0.142,1.627,0.244,3.99,1.936,4.009c0.819,0.011,1.962-0.608,1.712-1.446c-0.127-0.434-0.557-0.693-1.007-0.607
		c-0.167,0.032-0.227,0.156-0.396,0.186c-0.167,0.03-0.328,0.13-0.434-0.035c-0.291-0.45-0.222-1.034-0.113-2.306v-0.001
		c0.018-0.212,0.037-0.444,0.056-0.696c0.148-1.983,0.908-3.674,1.313-4.452c0.153-0.292,0.256-0.454,0.256-0.454
		s0.12-0.036,0.293,0.057c0.156,0.081,0.295,0.219,0.42,0.398h0.001c0.671,0.975,0.921,3.214,0.834,5.147
		c-0.001,0.019-0.002,0.032-0.002,0.047c-0.133,2.799-0.649,6.536-0.763,6.877c-0.1,0.302-0.241,0.502-0.642,0.262
		c-0.403-0.242-2.132-1.577-3.098-3.186c-0.48-0.799-1.088-2.256-1.559-3.999v-0.001c-0.426-1.573-0.74-3.381-0.746-5.147v-0.001
		c0-0.213,0.003-0.43,0.012-0.643c0.066-1.607,0.209-3.116,0.385-4.502H5.605v-0.001h0.133c0.253-1.996,0.58-3.737,0.851-5.147
		c0.166-0.861,0.31-1.598,0.405-2.194c0.116-0.712,0.75-2.848,1.274-2.848c0.448,0,0.479,2.796,0.999,4.528
		c0.052,0.173,0.105,0.344,0.158,0.513v0.001c0.571,1.825,1.255,3.571,2.017,5.149h0.001c0.419,0.869,0.863,1.686,1.326,2.437
		c0.494,0.831,1.206,1.752,2.055,2.708h0.001c1.503,1.699,3.439,3.514,5.371,5.15h0.005c2.571,2.184,5.133,4.048,6.665,4.909
		c2.622,1.477,5.008,2.677,7.393,3.603c1.532,0.374,2.192-0.34,2.581-1.659c0.456-1.551-1.825-2.555-1.825-2.555l0.018-0.016
		c-2.295-0.914-5.141-2.242-7.118-3.604c-0.324-0.22-0.659-0.447-1.006-0.682c-1.937-1.309-4.206-2.854-6.462-5.148
		c-1.365-1.385-2.727-3.044-4.005-5.088c-0.011-0.018-0.023-0.037-0.034-0.054v-0.004c-0.992-1.596-1.709-3.431-2.228-5.145v-0.002
		c-0.884-2.918-1.187-5.481-1.271-5.914c4.423-0.202,10.303,0.733,14.725,2.985c1.951,0.994,3.34,2.018,4.314,2.929
		c1.599,1.493,2.085,2.674,2.12,2.902c0.056,0.368,0.01,0.484-0.495,0.772c-0.503,0.288-3.85,1.38-8.089,1.08
		c0,0-5.061-0.856-5.005-1.431c0.033-0.329,3.181-2.072,5.065-2.313c0.884-0.113,3.031-0.57,3.549,0.481
		c0.069,0.144-0.081,0.417-0.199,0.491c-0.082,0.052-0.123-0.022-0.21-0.152c-0.087-0.131-0.483-0.134-0.483-0.134
		s-0.723-0.207-0.775,0.928c-0.051,1.136,1.025,1.166,1.326,1.173c0.304,0.007,2.22-0.326,2.257-2.245
		c0.012-0.585-0.237-1.125-0.615-1.554c-0.462-0.523-1.116-0.883-1.726-0.965c-3.97-0.535-4.651,0.338-6.3,0.928
		c-0.031,0.011-0.063,0.023-0.097,0.037v0.001c-1.431,0.554-2.897,2.022-3.05,2.121c-0.157,0.101-0.359,0.049-0.45,0.024
		c-0.092-0.024-0.895-0.589-0.889-1.56c0.001-0.213,0.02-0.407,0.051-0.585c0.158-0.901,0.643-1.353,0.861-1.413
		c0.292-0.079,0.646-0.074,0.542,0.103c-0.14,0.239,0.061,1.106,0.499,1.305v0.005c0.02,0.005,0.042,0.012,0.064,0.019
		c0.21,0.06,0.645,0.126,1.063-0.019h0.01c0.365-0.134,0.717-0.431,0.893-1.043c0.815-2.83-4.197-3.791-5.781-0.933
		c-0.326,0.588-0.44,1.274-0.413,1.975v0.002c0.06,1.629,0.885,3.33,1.549,4.021c0.403,0.418,0.846,0.79,1.323,1.121v0.005
		c1.943,1.342,4.44,1.998,6.924,2.199c2.946,0.237,5.395-0.078,7.495-0.835c1.375-0.496,1.949-0.707,2.112-0.815
		c0.164-0.11,0.418-0.154,0.512,0.162c0.134,0.453,0.396,0.676,0.274,2.561c-0.046,0.697-0.198,1.326-0.421,1.876
		c-0.576,1.423-1.619,2.322-2.501,2.538c-0.394,0.098-0.967,0.075-0.965-0.201c0.002-0.275-0.052-0.348,0.021-0.637
		c0.072-0.29,0.187-1.479-1.715-1.611c-2.905-0.204-2.538,4.223,0.483,5.056l2.415,0.004h-2.415c0.201,0.05,0.414,0.091,0.639,0.111
		c0.628,0.059,1.254,0.02,1.864-0.111h0.001c1.34-0.288,2.597-1.016,3.615-2.093c0.547-0.578,1.459-1.452,1.979-3.052V22.584z"/>
</g>
</svg>
