<?xml version="1.0" encoding="utf-8"?>
<!-- Generator: Adobe Illustrator 15.0.0, SVG Export Plug-In . SVG Version: 6.00 Build 0)  -->
<!DOCTYPE svg PUBLIC "-//W3C//DTD SVG 1.1//EN" "http://www.w3.org/Graphics/SVG/1.1/DTD/svg11.dtd">
<svg version="1.1" id="Layer_1" xmlns="http://www.w3.org/2000/svg" xmlns:xlink="http://www.w3.org/1999/xlink" x="0px" y="0px"
	 width="457.5px" height="52.477px" viewBox="42.5 0 457.5 52.477" enable-background="new 42.5 0 457.5 52.477"
	 xml:space="preserve">
<g>
	<rect x="2.136" y="2.082" fill="none" width="496.187" height="47.652"/>
	<g>
		<defs>
			<rect id="SVGID_1_" x="2.136" y="2.082" width="496.187" height="47.652"/>
		</defs>
		<clipPath id="SVGID_2_">
			<use xlink:href="#SVGID_1_"  overflow="visible"/>
		</clipPath>
		<path clip-path="url(#SVGID_2_)" fill="#FFFFFF" d="M80.587,4.191c0.194,0.313,2.663,2.735,4.677,3.975
			c1.98,1.217,4.383,1.984,5.071,2.096c1.03,0.165,3.314,0.096,4.425-0.044c1.113-0.14,5.313-1.941,5.43-5.159
			c0.057-1.582-1.428-1.977-2.105-1.658c-0.414,0.194-0.757,0.379-0.825,0.831c-0.095,0.627,0.263,1.27,1.179,1.119
			c0.26-0.043,0.192,0.147,0.192,0.155c0,0.457-0.642,1.382-1.12,1.266c-0.406-0.1-1.12-1.396-2.045-2.041
			c-2.649-1.84-7.042-1.627-8.242-0.668c-0.776,0.622-0.43,1.646,0.269,2.041c0.603,0.342,1.298,0.118,1.723-0.429
			c0.538-0.688-0.332-1.209,0.179-1.226c3.627-0.122,6.359,2.799,6.301,3.399c-0.009,0.094-0.002,0.122-0.124,0.205
			c-0.119,0.084-3.052,0.586-4.938,0.185c-1.454-0.311-2.255-0.691-3.512-1.485c-0.764-0.482-1.309-0.903-1.825-1.423
			C84.874,4.903,83.04,3.341,82.95,3.29c-0.182-0.105-1.368,0.146-1.657,0.312C81.005,3.765,80.521,4.069,80.587,4.191"/>
	</g>
	<g>
		<defs>
			<rect id="SVGID_3_" x="2.136" y="2.082" width="496.187" height="47.652"/>
		</defs>
		<clipPath id="SVGID_4_">
			<use xlink:href="#SVGID_3_"  overflow="visible"/>
		</clipPath>
		<path clip-path="url(#SVGID_4_)" fill="#FFFFFF" d="M181.419,4.191c0.194,0.313,2.663,2.735,4.677,3.975
			c1.979,1.217,4.383,1.984,5.071,2.096c1.031,0.165,3.314,0.096,4.425-0.044c1.113-0.14,5.313-1.941,5.43-5.159
			c0.058-1.582-1.428-1.977-2.104-1.658c-0.414,0.194-0.757,0.379-0.825,0.831c-0.095,0.627,0.262,1.27,1.179,1.119
			c0.26-0.043,0.191,0.147,0.191,0.155c0,0.457-0.642,1.382-1.119,1.266c-0.406-0.1-1.12-1.396-2.045-2.041
			c-2.649-1.84-7.042-1.627-8.242-0.668c-0.775,0.622-0.429,1.646,0.27,2.041c0.603,0.342,1.298,0.118,1.723-0.429
			c0.538-0.688-0.332-1.209,0.179-1.226c3.628-0.122,6.36,2.799,6.302,3.399c-0.009,0.094-0.002,0.122-0.124,0.205
			c-0.12,0.084-3.053,0.586-4.937,0.185c-1.455-0.311-2.256-0.691-3.513-1.485c-0.763-0.482-1.309-0.903-1.826-1.423
			c-0.423-0.427-2.257-1.988-2.347-2.039c-0.182-0.105-1.368,0.146-1.656,0.312C181.837,3.765,181.353,4.069,181.419,4.191"/>
	</g>
	<g>
		<defs>
			<rect id="SVGID_5_" x="2.136" y="2.082" width="496.187" height="47.652"/>
		</defs>
		<clipPath id="SVGID_6_">
			<use xlink:href="#SVGID_5_"  overflow="visible"/>
		</clipPath>
		<path clip-path="url(#SVGID_6_)" fill="#FFFFFF" d="M282.252,4.191c0.193,0.313,2.661,2.735,4.675,3.975
			c1.98,1.217,4.386,1.984,5.071,2.096c1.031,0.165,3.314,0.096,4.427-0.044s5.313-1.941,5.431-5.159
			c0.057-1.582-1.429-1.977-2.105-1.658c-0.413,0.194-0.757,0.379-0.825,0.831c-0.094,0.627,0.263,1.27,1.179,1.119
			c0.262-0.043,0.192,0.147,0.192,0.155c0,0.457-0.642,1.382-1.12,1.266c-0.405-0.1-1.118-1.396-2.045-2.041
			c-2.648-1.84-7.041-1.627-8.24-0.668c-0.777,0.622-0.431,1.646,0.269,2.041c0.603,0.342,1.298,0.118,1.723-0.429
			c0.539-0.688-0.33-1.209,0.181-1.226c3.627-0.122,6.359,2.799,6.301,3.399c-0.008,0.094-0.002,0.122-0.123,0.205
			c-0.119,0.084-3.053,0.586-4.938,0.185c-1.454-0.311-2.255-0.691-3.512-1.485c-0.765-0.482-1.31-0.903-1.827-1.423
			c-0.423-0.427-2.256-1.988-2.346-2.039c-0.182-0.105-1.369,0.146-1.657,0.312S282.186,4.069,282.252,4.191"/>
	</g>
	<g>
		<defs>
			<rect id="SVGID_7_" x="2.136" y="2.082" width="496.187" height="47.652"/>
		</defs>
		<clipPath id="SVGID_8_">
			<use xlink:href="#SVGID_7_"  overflow="visible"/>
		</clipPath>
		<path clip-path="url(#SVGID_8_)" fill="#FFFFFF" d="M383.084,4.191c0.193,0.313,2.662,2.735,4.676,3.975
			c1.979,1.217,4.383,1.984,5.071,2.096c1.03,0.165,3.313,0.096,4.426-0.044s5.313-1.941,5.431-5.159
			c0.058-1.582-1.429-1.977-2.104-1.658c-0.414,0.194-0.758,0.379-0.826,0.831c-0.094,0.627,0.263,1.27,1.179,1.119
			c0.262-0.043,0.192,0.147,0.192,0.155c0,0.457-0.642,1.382-1.12,1.266c-0.405-0.1-1.118-1.396-2.045-2.041
			c-2.647-1.84-7.041-1.627-8.24-0.668c-0.776,0.622-0.431,1.646,0.27,2.041c0.602,0.342,1.297,0.118,1.722-0.429
			c0.539-0.688-0.332-1.209,0.18-1.226c3.63-0.122,6.36,2.799,6.303,3.399c-0.011,0.094-0.002,0.122-0.124,0.205
			c-0.118,0.084-3.053,0.586-4.938,0.185c-1.454-0.311-2.255-0.691-3.512-1.485c-0.764-0.482-1.309-0.903-1.826-1.423
			c-0.424-0.427-2.257-1.988-2.347-2.039c-0.183-0.105-1.369,0.146-1.657,0.312S383.018,4.069,383.084,4.191"/>
	</g>
	<g>
		<defs>
			<rect id="SVGID_9_" x="2.136" y="2.082" width="496.187" height="47.652"/>
		</defs>
		<clipPath id="SVGID_10_">
			<use xlink:href="#SVGID_9_"  overflow="visible"/>
		</clipPath>
		<path clip-path="url(#SVGID_10_)" fill="#FFFFFF" d="M131.387,47.521c0.194-0.313,2.663-2.735,4.677-3.975
			c1.979-1.217,4.382-1.985,5.071-2.096c1.03-0.164,3.314-0.096,4.425,0.045c1.113,0.14,5.313,1.94,5.43,5.159
			c0.058,1.581-1.428,1.978-2.105,1.658c-0.413-0.194-0.757-0.379-0.825-0.831c-0.095-0.626,0.263-1.27,1.179-1.119
			c0.26,0.045,0.192-0.146,0.192-0.154c0-0.456-0.642-1.382-1.12-1.266c-0.406,0.1-1.119,1.396-2.044,2.04
			c-2.649,1.841-7.042,1.627-8.242,0.669c-0.776-0.622-0.429-1.645,0.27-2.041c0.602-0.343,1.297-0.118,1.723,0.429
			c0.538,0.688-0.332,1.209,0.179,1.226c3.627,0.122,6.36-2.798,6.302-3.398c-0.01-0.096-0.002-0.123-0.125-0.206
			c-0.119-0.084-3.052-0.586-4.937-0.187c-1.455,0.312-2.255,0.693-3.513,1.486c-0.763,0.481-1.309,0.904-1.825,1.423
			c-0.423,0.427-2.257,1.988-2.347,2.04c-0.182,0.105-1.368-0.147-1.656-0.313C131.805,47.947,131.321,47.643,131.387,47.521"/>
	</g>
	<g>
		<defs>
			<rect id="SVGID_11_" x="2.136" y="2.082" width="496.187" height="47.652"/>
		</defs>
		<clipPath id="SVGID_12_">
			<use xlink:href="#SVGID_11_"  overflow="visible"/>
		</clipPath>
		<path clip-path="url(#SVGID_12_)" fill="#FFFFFF" d="M230.624,47.521c0.194-0.313,2.664-2.735,4.677-3.975
			c1.98-1.217,4.383-1.985,5.071-2.096c1.031-0.164,3.313-0.096,4.425,0.045c1.112,0.14,5.312,1.94,5.429,5.159
			c0.058,1.581-1.427,1.978-2.104,1.658c-0.414-0.194-0.757-0.379-0.825-0.831c-0.095-0.626,0.264-1.27,1.178-1.119
			c0.261,0.045,0.192-0.146,0.192-0.154c0-0.456-0.642-1.382-1.119-1.266c-0.407,0.1-1.12,1.396-2.044,2.04
			c-2.65,1.841-7.043,1.627-8.243,0.669c-0.777-0.622-0.43-1.645,0.269-2.041c0.604-0.343,1.299-0.118,1.724,0.429
			c0.537,0.688-0.332,1.209,0.179,1.226c3.627,0.122,6.359-2.798,6.3-3.398c-0.008-0.096-0.002-0.123-0.124-0.206
			c-0.119-0.084-3.052-0.586-4.936-0.187c-1.456,0.312-2.256,0.693-3.513,1.486c-0.764,0.481-1.309,0.904-1.825,1.423
			c-0.423,0.427-2.258,1.988-2.347,2.04c-0.183,0.105-1.368-0.147-1.656-0.313C231.042,47.947,230.558,47.643,230.624,47.521"/>
	</g>
	<g>
		<defs>
			<rect id="SVGID_13_" x="2.136" y="2.082" width="496.187" height="47.652"/>
		</defs>
		<clipPath id="SVGID_14_">
			<use xlink:href="#SVGID_13_"  overflow="visible"/>
		</clipPath>
		<path clip-path="url(#SVGID_14_)" fill="#FFFFFF" d="M332.814,47.521c0.194-0.313,2.662-2.735,4.677-3.975
			c1.979-1.217,4.383-1.985,5.071-2.096c1.03-0.164,3.313-0.096,4.425,0.045c1.113,0.14,5.313,1.94,5.432,5.159
			c0.057,1.581-1.43,1.978-2.104,1.658c-0.413-0.194-0.758-0.379-0.825-0.831c-0.097-0.626,0.262-1.27,1.179-1.119
			c0.261,0.045,0.192-0.146,0.192-0.154c0-0.456-0.645-1.382-1.12-1.266c-0.405,0.1-1.12,1.396-2.045,2.04
			c-2.648,1.841-7.041,1.627-8.243,0.669c-0.774-0.622-0.429-1.645,0.271-2.041c0.604-0.343,1.298-0.118,1.724,0.429
			c0.536,0.688-0.332,1.209,0.179,1.226c3.628,0.122,6.361-2.798,6.303-3.398c-0.01-0.096-0.004-0.123-0.124-0.206
			c-0.12-0.084-3.053-0.586-4.938-0.187c-1.454,0.312-2.257,0.693-3.515,1.486c-0.764,0.481-1.308,0.904-1.824,1.423
			c-0.424,0.427-2.257,1.988-2.349,2.04c-0.181,0.105-1.367-0.147-1.655-0.313C333.232,47.947,332.749,47.643,332.814,47.521"/>
	</g>
	<g>
		<defs>
			<rect id="SVGID_15_" x="2.136" y="2.082" width="496.187" height="47.652"/>
		</defs>
		<clipPath id="SVGID_16_">
			<use xlink:href="#SVGID_15_"  overflow="visible"/>
		</clipPath>
		<path clip-path="url(#SVGID_16_)" fill="#FFFFFF" d="M433.233,47.521c0.194-0.313,2.663-2.735,4.677-3.975
			c1.979-1.217,4.383-1.985,5.071-2.096c1.029-0.164,3.313-0.096,4.425,0.045c1.112,0.14,5.313,1.94,5.43,5.159
			c0.059,1.581-1.428,1.978-2.104,1.658c-0.413-0.194-0.758-0.379-0.825-0.831c-0.098-0.626,0.262-1.27,1.179-1.119
			c0.259,0.045,0.19-0.146,0.19-0.154c0-0.456-0.643-1.382-1.118-1.266c-0.406,0.1-1.12,1.396-2.045,2.04
			c-2.649,1.841-7.041,1.627-8.243,0.669c-0.774-0.622-0.428-1.645,0.271-2.041c0.604-0.343,1.298-0.118,1.724,0.429
			c0.537,0.688-0.332,1.209,0.179,1.226c3.627,0.122,6.36-2.798,6.302-3.398c-0.01-0.096-0.003-0.123-0.125-0.206
			c-0.119-0.084-3.051-0.586-4.937-0.187c-1.455,0.312-2.256,0.693-3.514,1.486c-0.764,0.481-1.309,0.904-1.824,1.423
			c-0.424,0.427-2.257,1.988-2.349,2.04c-0.181,0.105-1.367-0.147-1.655-0.313C433.651,47.947,433.168,47.643,433.233,47.521"/>
	</g>
	<g>
		<defs>
			<rect id="SVGID_17_" x="2.136" y="2.082" width="496.187" height="47.652"/>
		</defs>
		<clipPath id="SVGID_18_">
			<use xlink:href="#SVGID_17_"  overflow="visible"/>
		</clipPath>
	</g>
</g>
<g>
	<path fill="#FFFFFF" d="M497.826,21.818c-0.595-2.153-1.74-4.423-3.448-6.663v-0.001c-0.669-0.879-1.426-1.752-2.268-2.614
		c-4.136-4.226-11.743-7.356-15.523-8.272c-3.779-0.916-7.86-1.333-12.938-1.541c-7.876-0.324-10.172-0.335-20.152,1.605
		c-10.645,2.067-15.636,6.067-20.172,10.821h-0.001c-0.778,0.816-1.544,1.653-2.32,2.51c-1.057,1.155-2.188,2.58-3.332,4.154h-0.007
		c-1.484,2.051-2.984,4.354-4.345,6.665h-0.002c-1.348,2.294-2.556,4.595-3.479,6.665c-1.04,2.334-1.713,4.38-1.802,5.789
		c-0.16,2.497-1.09,2.83-1.48,2.83c-0.505,0-0.818-1.272-0.967-2.195c-0.213-1.323-0.699-3.643-1.195-6.428
		c-0.361-2.041-0.729-4.33-0.993-6.661c-0.173-1.499-0.302-3.016-0.363-4.494c-0.03-0.716-0.017-1.443,0.032-2.17
		c0.159-2.367,0.688-4.719,1.313-6.664c0.53-1.66,1.133-3.021,1.623-3.845c1.249-2.083,2.188-3.228,2.709-3.539
		c0.52-0.313,0.624-0.418,1.04-0.21c0.366,0.184,1.848,4.172,2.322,7.595c0.065,0.475,0.112,0.938,0.132,1.378
		c0.079,1.642-0.189,3.717-0.47,5.281v0.003c-0.229,1.277-0.47,2.218-0.538,2.309c-0.15,0.203-0.354,0.203-0.354,0.203
		s-1.612-0.884-2.767-2.519h-0.004c-0.573-0.822-1.032-1.828-1.121-3.004c-0.157-2.13,0.442-3.364,0.691-3.648v-0.006
		c0.017-0.017,0.036-0.032,0.049-0.043c0.095-0.07,0.184-0.028,0.252,0.037v0.006c0.075,0.066,0.121,0.168,0.121,0.168
		s0.159,0.56,1.06,0.56c0.618,0,1.125-0.273,1.35-0.728h0.003c0.098-0.215,0.139-0.462,0.099-0.736
		c-0.118-0.884-0.85-1.532-1.795-1.537c-1.114-0.005-1.713,0.163-2.836,1.471c-0.205,0.24-0.37,0.512-0.505,0.803h-0.003
		c-0.602,1.295-0.58,2.906-0.572,3.346c0.007,0.262,0.256,1.771,0.842,3.32c0.614,1.621,1.595,3.282,3.047,3.605
		c0.431,0.095,1.257,0.353,1.29,0.416c0.132,0.221-0.093,0.706-0.121,0.784c-0.343,0.911-1.147,1.524-1.689,1.542
		c-0.297,0.009-0.605-0.084-0.686-0.322c-0.086-0.239,0.143-0.19,0.368-0.582c0.227-0.393,0.49-1.834-1.246-1.789
		c-1.515,0.037-1.886,1.741-1.886,2.179c0,0.146,0.035,0.467,0.187,0.826v0.005c0.304,0.718,1.081,1.604,2.99,1.596
		c1.302-0.006,2.355-0.738,3.158-1.596c0.967-1.033,1.562-2.248,1.758-2.581c0.357-0.607,1.116-2.248,1.521-3.786
		c0.026-0.101,0.054-0.2,0.077-0.298c0.603-2.475,0.42-4.122,0.19-6.658v-0.006c-0.009-0.103-0.017-0.212-0.028-0.321
		c-0.3-3.379-1.701-8.014-2.013-8.463c-0.311-0.45-0.272-0.355-0.152-0.475c0.117-0.121,1.845-0.645,3.165-0.608
		c1.317,0.035,3.782,0.699,4.865,3.167c1.085,2.464,0.217,3.297,0.156,3.366c-0.061,0.072-0.298,0.155-0.347,0.024
		c-0.049-0.132,0.186-0.927-1.762-0.88c-1.949,0.048-1.957,1.639-1.939,2.141c0.021,0.388,0.298,1.558,1.506,2.051h0.013
		c0.346,0.145,0.766,0.229,1.278,0.224c0.49-0.005,0.954-0.085,1.389-0.227c1.619-0.528,2.779-1.906,2.968-3.345
		c0.239-1.822-0.21-4.299-0.892-5.368c-0.681-1.07-1.531-1.93-3.01-2.964c-1.479-1.032-3.444-1.322-4.802-1.357
		c-1.354-0.036-4.301-0.297-6.91,1.478c-2.608,1.773-4.392,3.013-6.273,6.26c-1.043,1.799-1.899,3.599-2.515,5.294v0.002
		c-0.498,1.367-0.837,2.666-0.993,3.846c-0.08,0.624-0.16,1.604-0.215,2.813v0.009c-0.083,1.846-0.113,4.229-0.009,6.667
		c0.096,2.305,0.307,4.655,0.699,6.662c0.069,0.363,0.145,0.713,0.228,1.053c0.989,4.06,1.745,5.968,1.799,6.594
		c0.052,0.624-2.573-0.081-4.899-0.625c-2.199-0.515-9.342-3.273-13.506-6.137c-0.418-0.288-0.854-0.581-1.304-0.886
		c-2.505-1.694-5.442-3.695-8.367-6.665c-1.769-1.794-3.528-3.942-5.186-6.589c-0.013-0.022-0.029-0.048-0.042-0.071v-0.005
		c-1.278-2.056-2.195-4.437-2.855-6.67h-0.002c-1.133-3.841-1.503-7.232-1.614-7.796c5.729-0.26,13.278,1.094,19.007,4.01
		c2.524,1.287,4.32,2.613,5.586,3.792c2.069,1.933,2.699,3.463,2.745,3.758c0.068,0.475,0.012,0.628-0.64,0.999
		c-0.652,0.372-4.984,1.786-10.476,1.397c0,0-6.554-1.108-6.481-1.854c0.045-0.428,4.12-2.684,6.562-2.994
		c1.142-0.146,3.924-0.738,4.593,0.623c0.091,0.185-0.104,0.54-0.259,0.636c-0.108,0.067-0.157-0.029-0.271-0.196
		c-0.112-0.169-0.627-0.174-0.627-0.174s-0.934-0.267-1.002,1.202c-0.066,1.471,1.326,1.509,1.718,1.518
		c0.391,0.011,2.873-0.421,2.923-2.904c0.015-0.759-0.308-1.458-0.798-2.014h-0.003c-0.593-0.676-1.441-1.141-2.229-1.248
		c-5.143-0.691-6.023,0.438-8.157,1.201c-0.044,0.016-0.083,0.031-0.126,0.047v0.002c-1.854,0.717-3.752,2.619-3.951,2.747
		c-0.202,0.13-0.462,0.064-0.583,0.03c-0.118-0.03-1.156-0.762-1.148-2.02c0.002-0.275,0.064-0.757,0.064-0.757
		c0.205-1.166,0.832-1.752,1.115-1.828c0.376-0.102,0.839-0.097,0.703,0.133c-0.183,0.31,0.076,1.432,0.644,1.689v0.006
		c0.029,0.007,0.056,0.016,0.084,0.024c0.273,0.077,0.836,0.164,1.378-0.024h0.012c0.475-0.174,0.93-0.558,1.159-1.351
		c1.054-3.666-5.438-4.909-7.486-1.209c-0.422,0.761-0.528,2.607-0.526,2.632c-0.003,0.009-0.02,0.021-0.02,0.029
		c0,0.018,0.023,0.032,0.031,0.048c0.121,2.063,1.145,4.183,1.986,5.058c0.519,0.542,1.095,1.023,1.713,1.451v0.006
		c2.515,1.738,5.747,2.588,8.962,2.848c3.816,0.307,6.986-0.101,9.706-1.082c1.779-0.643,2.523-0.914,2.735-1.056
		c0.212-0.143,0.542-0.199,0.663,0.21c0.172,0.585,0.513,0.875,0.353,3.314c-0.057,0.903-0.255,1.718-0.543,2.43h-0.002
		c-0.744,1.843-2.095,3.005-3.234,3.286c-0.512,0.126-1.252,0.099-1.25-0.261c0.003-0.357-0.069-0.45,0.025-0.823
		c0.094-0.375,0.242-1.915-2.221-2.088c-3.763-0.264-3.285,5.468,0.623,6.546l3.131,0.005h-3.131
		c0.263,0.065,0.539,0.118,0.829,0.145c0.813,0.077,1.625,0.024,2.414-0.145c1.737-0.371,3.366-1.314,4.683-2.709
		c0.71-0.748,2.016-1.881,2.758-3.951v-0.005c0.265-0.737,0.459-1.604,0.522-2.618c0.081-1.253-0.425-4.046-0.425-4.046
		c-0.558-2.16-1.643-4.45-3.287-6.66v-0.004c-0.574-0.769-1.216-1.527-1.928-2.272c-4.096-4.278-10.909-7.057-14.614-8.236
		c-3.706-1.178-11.46-1.76-14.476-1.927c-7.829-0.324-7.405-0.673-19.877,1.614c-10.673,1.956-15.648,6.039-20.182,10.821h-0.004
		c-0.774,0.821-1.536,1.657-2.311,2.51c-1.056,1.155-2.188,2.58-3.333,4.154h-0.003c-1.486,2.051-2.984,4.354-4.346,6.665h-0.003
		c-1.348,2.294-3.478,6.665-3.478,6.665c-1.04,2.334-2.893,8.619-3.283,8.619c-0.507,0-0.818-1.272-0.969-2.195
		c-0.211-1.323-0.697-3.643-1.192-6.428c-0.361-2.041-0.729-4.33-0.996-6.661c-0.171-1.499-0.3-3.016-0.359-4.494
		c-0.029-0.716-0.019-1.443,0.03-2.17c0.159-2.367,0.69-4.719,1.313-6.664c0.531-1.66,1.13-3.021,1.625-3.845
		c1.246-2.083,2.186-3.228,2.706-3.539c0.521-0.313,0.622-0.418,1.043-0.21c0.364,0.184,1.846,4.172,2.319,7.595
		c0.065,0.475,0.111,0.938,0.132,1.378c0.079,1.642-0.188,3.717-0.469,5.281v0.003c-0.229,1.277-0.47,2.218-0.536,2.309
		c-0.153,0.203-0.355,0.203-0.355,0.203s-1.612-0.884-2.764-2.519h-0.005c-0.575-0.822-1.034-1.828-1.125-3.004
		c-0.156-2.13,0.446-3.364,0.693-3.648v-0.006c0.019-0.017,0.036-0.032,0.049-0.043c0.098-0.07,0.187-0.028,0.251,0.037v0.006
		c0.075,0.066,0.125,0.168,0.125,0.168s0.154,0.56,1.058,0.56c0.617,0,1.125-0.273,1.347-0.728h0.003
		c0.102-0.215,0.141-0.462,0.103-0.736c-0.12-0.884-0.853-1.532-1.799-1.537c-1.11-0.005-1.711,0.163-2.831,1.471
		c-0.207,0.24-0.374,0.512-0.51,0.803H304.7c-0.6,1.295-0.58,2.906-0.57,3.346c0.007,0.262,0.254,1.771,0.84,3.32
		c0.612,1.621,1.595,3.282,3.049,3.605c0.429,0.095,1.254,0.353,1.291,0.416c0.129,0.221-0.096,0.706-0.124,0.784
		c-0.342,0.911-1.149,1.524-1.691,1.542c-0.294,0.009-0.601-0.084-0.684-0.322c-0.085-0.239,0.143-0.19,0.369-0.582
		c0.229-0.393,0.489-1.834-1.246-1.789c-1.516,0.037-1.887,1.741-1.887,2.179c0,0.146,0.034,0.467,0.187,0.826v0.005
		c0.304,0.718,1.079,1.604,2.991,1.596c1.299-0.006,2.356-0.738,3.157-1.596c0.97-1.033,1.563-2.248,1.757-2.581
		c0.359-0.607,1.118-2.248,1.523-3.786c0.026-0.101,0.051-0.2,0.076-0.298c0.604-2.475,0.419-4.122,0.189-6.658v-0.006
		c-0.009-0.103-0.019-0.212-0.028-0.321c-0.298-3.379-1.701-8.014-2.012-8.463c-0.31-0.45-0.273-0.355-0.155-0.475
		c0.121-0.121,1.845-0.645,3.169-0.608c1.315,0.035,3.779,0.699,4.864,3.167c1.086,2.464,0.215,3.297,0.155,3.366
		c-0.063,0.072-0.298,0.155-0.346,0.024c-0.047-0.132,0.187-0.927-1.763-0.88c-1.949,0.048-1.957,1.639-1.937,2.141
		c0.015,0.388,0.293,1.558,1.503,2.051h0.011c0.346,0.145,0.767,0.229,1.281,0.224c0.488-0.005,0.952-0.085,1.384-0.227
		c1.622-0.528,2.783-1.906,2.973-3.345c0.236-1.822-0.212-4.299-0.894-5.368c-0.681-1.07-1.53-1.93-3.01-2.964
		c-1.479-1.032-3.446-1.322-4.802-1.357c-1.355-0.036-4.303-0.297-6.909,1.478c-2.607,1.773-4.391,3.013-6.274,6.26
		c-1.04,1.799-2.044,3.599-2.79,5.294v0.002c-0.598,1.367-1.034,2.666-1.189,3.846c-0.079,0.624-0.157,1.604-0.216,2.813v0.01
		c-0.082,1.846-0.11,4.229-0.008,6.667c0.096,2.305,0.308,4.655,0.699,6.662c0.07,0.363,0.146,0.713,0.229,1.053
		c0.99,4.06,2.219,5.968,2.269,6.594c0.056,0.624-2.569-0.081-4.897-0.625c-2.199-0.514-9.34-3.273-13.506-6.137
		c-0.418-0.288-0.855-0.581-1.304-0.886c-2.503-1.694-5.442-3.695-8.366-6.665h-0.002c-1.768-1.794-3.527-3.942-5.185-6.589
		c-0.015-0.022-0.028-0.048-0.042-0.07v-0.006c-1.285-2.065-2.887-6.664-2.887-6.664c-1.144-3.778-1.536-7.097-1.646-7.656
		c5.727-0.261,13.34,0.948,19.066,3.864c2.527,1.287,4.324,2.613,5.586,3.792c2.068,1.933,2.701,3.463,2.744,3.758
		c0.074,0.475,0.013,0.628-0.639,0.999c-0.652,0.372-4.986,1.786-10.475,1.397c0,0-6.555-1.108-6.482-1.854
		c0.045-0.428,4.121-2.684,6.562-2.994c1.146-0.146,3.922-0.738,4.593,0.623c0.092,0.185-0.104,0.54-0.256,0.636
		c-0.107,0.067-0.161-0.029-0.273-0.196c-0.109-0.169-0.625-0.174-0.625-0.174s-0.936-0.267-1.002,1.202
		c-0.068,1.471,1.326,1.509,1.717,1.518c0.392,0.011,2.873-0.421,2.922-2.904c0.015-0.758-0.308-1.458-0.797-2.014h-0.002
		c-0.595-0.676-1.443-1.141-2.231-1.248c-5.142-0.691-6.022,0.438-8.156,1.201c-0.042,0.016-0.084,0.031-0.127,0.047v0.002
		c-1.853,0.717-3.751,2.619-3.948,2.747c-0.203,0.13-0.467,0.064-0.585,0.03c-0.118-0.03-1.159-0.762-1.149-2.02
		c0.002-0.264,0.027-0.5,0.063-0.722c0.003-0.01,0.02-0.019,0.02-0.025c0-0.006-0.012-0.015-0.012-0.019
		c0.205-1.16,0.83-1.744,1.11-1.82c0.38-0.102,0.837-0.097,0.702,0.133c-0.18,0.31,0.076,1.432,0.645,1.689v0.006
		c0.027,0.007,0.057,0.016,0.086,0.024c0.271,0.077,0.836,0.164,1.377-0.024h0.012c0.474-0.174,0.93-0.558,1.156-1.351
		c1.056-3.666-5.434-4.909-7.484-1.209c-0.424,0.762-0.57,1.65-0.534,2.556v0.004c0.078,2.109,1.146,4.312,2.006,5.207
		c0.523,0.542,1.097,1.023,1.712,1.451v0.006c2.516,1.738,5.749,2.588,8.965,2.848c3.813,0.307,6.985-0.101,9.707-1.082
		c1.779-0.643,2.523-0.914,2.733-1.056c0.212-0.143,0.542-0.199,0.661,0.21c0.173,0.585,0.514,0.875,0.357,3.314
		c-0.061,0.903-0.259,1.718-0.547,2.43c-0.744,1.843-2.095,3.005-3.236,3.286c-0.512,0.126-1.252,0.099-1.25-0.261
		c0.002-0.357-0.067-0.45,0.025-0.823c0.096-0.375,0.244-1.915-2.218-2.088c-3.767-0.264-3.288,5.468,0.622,6.546l3.131,0.005
		h-3.131c0.262,0.065,0.537,0.118,0.829,0.145c0.812,0.077,1.624,0.024,2.411-0.145h0.003c1.735-0.371,3.366-1.314,4.682-2.709
		c0.707-0.748,2.015-1.881,2.755-3.951v-0.005c0.269-0.737,0.459-1.604,0.526-2.618c0.079-1.253-0.06-2.621-0.425-4.044
		c0,0-0.104-0.002-0.106-0.002h0.106c-0.559-2.16-1.643-4.45-3.287-6.66v-0.004c-0.576-0.769-1.219-1.527-1.93-2.272
		c-4.098-4.278-10.906-7.057-14.614-8.236c-3.707-1.178-11.461-1.76-14.478-1.927c-7.646-0.32-7.565-0.654-19.94,1.614
		c-10.67,1.956-15.648,6.039-20.179,10.821h-0.005c-0.775,0.821-1.537,1.657-2.31,2.51c-1.055,1.155-2.188,2.58-3.333,4.154h-0.003
		c-1.488,2.051-2.988,4.354-4.347,6.665h-0.003c-1.255,2.143-2.555,4.656-3.472,6.665l-0.189,0.431
		c-0.933,2.153-1.535,4.037-1.618,5.358c-0.159,2.497-1.09,2.83-1.482,2.83c-0.504,0-0.816-1.272-0.965-2.195
		c-0.213-1.323-0.699-3.643-1.194-6.428c-0.364-2.041-0.729-4.33-0.995-6.661c-0.171-1.499-0.301-3.016-0.362-4.494
		c-0.03-0.716-0.016-1.443,0.031-2.17c0.16-2.367,0.688-4.719,1.312-6.664c0.531-1.66,1.132-3.021,1.625-3.845
		c1.249-2.083,2.186-3.228,2.708-3.539c0.521-0.313,0.624-0.418,1.042-0.21c0.367,0.184,1.847,4.172,2.32,7.595
		c0.067,0.475,0.112,0.938,0.133,1.378c0.078,1.642-0.189,3.717-0.469,5.281v0.003c-0.231,1.277-0.471,2.218-0.537,2.309
		c-0.153,0.203-0.356,0.203-0.356,0.203s-1.609-0.884-2.761-2.519h-0.005c-0.576-0.822-1.036-1.828-1.124-3.004
		c-0.156-2.13,0.445-3.364,0.692-3.648v-0.006c0.019-0.017,0.037-0.032,0.049-0.043c0.096-0.07,0.186-0.028,0.251,0.037v0.006
		c0.076,0.066,0.125,0.168,0.125,0.168s0.153,0.56,1.056,0.56c0.618,0,1.125-0.273,1.348-0.728h0.003
		c0.099-0.215,0.139-0.462,0.101-0.736c-0.119-0.884-0.852-1.532-1.797-1.537c-1.113-0.005-1.713,0.163-2.835,1.471
		c-0.205,0.24-0.371,0.512-0.506,0.803h-0.002c-0.602,1.295-0.581,2.906-0.57,3.346c0.007,0.262,0.253,1.771,0.84,3.32
		c0.613,1.621,1.592,3.282,3.049,3.605c0.427,0.095,1.253,0.353,1.288,0.416c0.129,0.221-0.093,0.706-0.122,0.784
		c-0.341,0.911-1.148,1.524-1.691,1.542c-0.294,0.009-0.602-0.084-0.685-0.322c-0.082-0.239,0.144-0.19,0.37-0.582
		c0.228-0.393,0.489-1.834-1.247-1.789c-1.513,0.037-1.886,1.741-1.886,2.179c0,0.146,0.036,0.467,0.187,0.826v0.005
		c0.306,0.718,1.081,1.604,2.992,1.596c1.3-0.006,2.356-0.738,3.158-1.596c0.967-1.033,1.561-2.248,1.758-2.581
		c0.356-0.607,1.115-2.248,1.519-3.786c0.03-0.101,0.054-0.2,0.077-0.298c0.606-2.475,0.425-4.122,0.194-6.658v-0.006
		c-0.009-0.103-0.019-0.212-0.029-0.321c-0.3-3.379-1.702-8.014-2.013-8.463c-0.309-0.45-0.275-0.355-0.154-0.475
		c0.121-0.121,1.847-0.645,3.165-0.608c1.321,0.035,3.784,0.699,4.87,3.167c1.084,2.464,0.214,3.297,0.155,3.366
		c-0.06,0.072-0.3,0.155-0.345,0.024c-0.049-0.132,0.187-0.927-1.763-0.88c-1.951,0.048-1.959,1.639-1.936,2.141
		c0.014,0.388,0.293,1.558,1.502,2.051h0.011c0.345,0.145,0.768,0.229,1.281,0.224c0.487-0.005,0.953-0.085,1.386-0.227
		c1.62-0.528,2.78-1.906,2.968-3.345c0.239-1.822-0.212-4.299-0.892-5.368c-0.679-1.07-1.529-1.93-3.009-2.964
		c-1.478-1.032-3.445-1.322-4.803-1.357c-1.354-0.036-4.301-0.297-6.907,1.478c-2.609,1.773-4.395,3.013-6.275,6.26
		c-1.041,1.799-1.9,3.599-2.516,5.294v0.002c-0.496,1.367-0.837,2.666-0.992,3.846c-0.081,0.624-0.16,1.604-0.215,2.813v0.009
		c-0.083,1.846-0.11,4.229-0.009,6.667c0.097,2.305,0.31,4.655,0.698,6.662c0.07,0.363,0.147,0.713,0.229,1.053
		c0.989,4.06,1.746,5.968,1.799,6.594c0.053,0.624-2.574-0.081-4.9-0.625c-2.199-0.515-9.34-3.273-13.504-6.137
		c-0.421-0.288-0.854-0.581-1.306-0.886c-2.503-1.694-5.443-3.695-8.367-6.665h-0.001c-1.766-1.794-3.527-3.942-5.183-6.589
		c-0.014-0.022-0.028-0.048-0.043-0.071v-0.005c-1.275-2.056-2.195-4.437-2.856-6.67c-1.133-3.841-1.505-7.232-1.615-7.796
		c5.729-0.26,13.278,1.094,19.005,4.01c2.527,1.287,4.326,2.613,5.586,3.792c2.07,1.933,2.702,3.463,2.745,3.758
		c0.072,0.475,0.013,0.628-0.639,0.999c-0.653,0.372-4.984,1.786-10.475,1.397c0,0-6.553-1.108-6.482-1.854
		c0.043-0.428,4.122-2.684,6.562-2.994c1.14-0.146,3.922-0.738,4.593,0.623c0.089,0.185-0.106,0.54-0.258,0.636
		c-0.105,0.067-0.158-0.029-0.272-0.196c-0.109-0.169-0.627-0.174-0.627-0.174s-0.934-0.267-1.001,1.202
		c-0.068,1.471,1.328,1.509,1.717,1.518c0.392,0.011,2.874-0.421,2.922-2.904c0.014-0.759-0.306-1.458-0.796-2.014h-0.001
		c-0.597-0.676-1.444-1.141-2.232-1.248c-5.141-0.691-8.242,1.232-8.285,1.248v0.002c-1.851,0.717-3.749,2.619-3.947,2.747
		c-0.203,0.13-0.466,0.064-0.584,0.03c-0.12-0.03-1.158-0.762-1.151-2.02c0.002-0.275,0.027-0.527,0.066-0.757
		c0.205-1.166,0.831-1.752,1.117-1.828c0.377-0.102,0.837-0.097,0.701,0.133c-0.182,0.31,0.078,1.432,0.644,1.689v0.006
		c0.029,0.007,0.055,0.016,0.086,0.024c0.272,0.077,0.835,0.164,1.376-0.024h0.012c0.473-0.174,0.929-0.558,1.157-1.351
		c1.055-3.666-5.436-4.909-7.487-1.209c-0.422,0.762-0.569,1.65-0.535,2.556h0.019v0.004h-0.019c0.08,2.109,1.146,4.312,2.008,5.207
		c0.52,0.542,1.094,1.023,1.712,1.451v0.006c2.516,1.738,5.749,2.588,8.964,2.848c3.815,0.307,6.986-0.101,9.706-1.082
		c1.78-0.643,2.523-0.914,2.735-1.056c0.211-0.143,0.541-0.199,0.663,0.21c0.175,0.585,0.512,0.875,0.354,3.314
		c-0.057,0.903-0.255,1.718-0.544,2.43c-0.745,1.843-2.095,3.005-3.236,3.286c-0.512,0.126-1.253,0.099-1.248-0.261
		c0.002-0.357-0.069-0.45,0.024-0.823c0.093-0.375,0.241-1.915-2.22-2.088c-3.764-0.264-3.287,5.468,0.622,6.546v0.005
		c0.263,0.065,0.539,0.118,0.831,0.145c0.813,0.077,1.623,0.024,2.412-0.145h0.001c1.735-0.371,3.365-1.314,4.683-2.709
		c0.707-0.748,2.015-1.881,2.756-3.951v-0.005c0.267-0.737,0.46-1.604,0.524-2.618c0.08-1.253-0.059-2.621-0.425-4.044v-0.002
		c-0.558-2.16-1.643-4.45-3.287-6.66v-0.004c-0.574-0.769-1.218-1.527-1.928-2.272c-4.097-4.278-10.908-7.057-14.614-8.236
		c-3.706-1.178-11.462-1.76-14.477-1.927c-7.687-0.322-7.546-0.657-19.941,1.614c-10.67,1.956-15.647,6.039-20.181,10.821h-0.005
		c-0.773,0.821-1.535,1.657-2.309,2.51c-1.056,1.155-2.19,2.58-3.333,4.154h-0.002c-1.487,2.051-2.986,4.354-4.347,6.665h-0.003
		c-1.347,2.294-2.558,4.595-3.477,6.665c-1.038,2.334-1.713,4.38-1.802,5.789c-0.16,2.497-1.09,2.83-1.482,2.83
		c-0.504,0-0.816-1.272-0.965-2.195c-0.212-1.323-0.7-3.643-1.195-6.428c-0.361-2.041-0.727-4.33-0.993-6.661
		c-0.173-1.499-0.303-3.016-0.364-4.494c-0.029-0.716-0.015-1.443,0.032-2.17c0.159-2.367,0.69-4.719,1.313-6.664
		c0.533-1.66,1.132-3.021,1.624-3.845c1.248-2.083,2.186-3.228,2.708-3.539c0.521-0.313,0.625-0.418,1.042-0.21
		c0.364,0.184,1.846,4.172,2.321,7.595c0.065,0.475,0.11,0.938,0.132,1.378c0.079,1.642-0.189,3.717-0.469,5.281v0.003
		c-0.232,1.277-0.471,2.218-0.538,2.309c-0.151,0.203-0.355,0.203-0.355,0.203s-1.612-0.884-2.764-2.519h-0.004
		c-0.575-0.822-1.035-1.828-1.122-3.004c-0.158-2.13,0.443-3.364,0.691-3.648v-0.006c0.019-0.017,0.035-0.032,0.05-0.043
		c0.096-0.07,0.183-0.028,0.249,0.037v0.006c0.075,0.066,0.125,0.168,0.125,0.168s0.154,0.56,1.058,0.56
		c0.62,0,1.126-0.273,1.347-0.728h0.003c0.1-0.215,0.139-0.462,0.102-0.736c-0.119-0.884-0.853-1.532-1.797-1.537
		c-1.114-0.005-1.714,0.163-2.834,1.471c-0.207,0.24-0.371,0.512-0.507,0.803h-0.001c-0.602,1.295-0.581,2.906-0.572,3.346
		c0.007,0.262,0.255,1.771,0.842,3.32c0.611,1.621,1.591,3.282,3.047,3.605c0.427,0.095,1.255,0.353,1.29,0.416
		c0.129,0.221-0.093,0.706-0.124,0.784c-0.342,0.911-1.148,1.524-1.691,1.542c-0.294,0.009-0.6-0.084-0.685-0.322
		c-0.083-0.239,0.146-0.19,0.372-0.582c0.226-0.393,0.489-1.834-1.247-1.789c-1.515,0.037-1.886,1.741-1.886,2.179
		c0,0.146,0.035,0.467,0.187,0.826v0.005c0.304,0.718,1.08,1.604,2.991,1.596c1.3-0.006,2.356-0.738,3.158-1.596
		c0.968-1.033,1.562-2.248,1.758-2.581c0.356-0.607,1.117-2.248,1.522-3.786c0.026-0.101,0.052-0.2,0.075-0.298
		c0.605-2.475,0.421-4.122,0.192-6.658v-0.006c-0.01-0.103-0.021-0.212-0.031-0.321c-0.297-3.379-1.701-8.014-2.009-8.463
		c-0.312-0.45-0.275-0.355-0.155-0.475c0.118-0.121,1.845-0.645,3.165-0.608c1.32,0.035,3.782,0.699,4.866,3.167
		c1.086,2.464,0.216,3.297,0.156,3.366c-0.059,0.072-0.297,0.155-0.346,0.024c-0.046-0.132,0.188-0.927-1.76-0.88
		c-1.951,0.048-1.959,1.639-1.938,2.141c0.014,0.388,0.295,1.558,1.503,2.051h0.011c0.347,0.145,0.77,0.229,1.282,0.224
		c0.488-0.005,0.952-0.085,1.386-0.227c1.619-0.528,2.78-1.906,2.968-3.345c0.238-1.822-0.211-4.299-0.891-5.368
		c-0.68-1.07-1.53-1.93-3.01-2.964c-1.478-1.032-3.445-1.322-4.799-1.357c-1.357-0.036-4.306-0.297-6.912,1.478
		c-2.609,1.773-4.393,3.013-6.275,6.26c-1.04,1.799-1.898,3.599-2.514,5.294v0.002c-0.498,1.367-0.839,2.666-0.992,3.846
		c-0.081,0.624-0.16,1.604-0.215,2.813v0.006c-0.083,1.846-0.112,4.229-0.009,6.667c0.096,2.305,0.308,4.655,0.698,6.662
		c0.07,0.363,0.145,0.713,0.228,1.052c0.989,4.061,1.747,5.969,1.799,6.595c0.052,0.624-2.573-0.081-4.899-0.625
		c-2.199-0.515-9.341-3.273-13.505-6.138c-0.42-0.287-0.854-0.58-1.303-0.885c-2.506-1.694-5.447-3.695-8.368-6.665
		c-1.768-1.794-3.529-3.942-5.185-6.589c-0.014-0.022-0.03-0.048-0.043-0.071v-0.005c-1.285-2.065-2.214-4.441-2.886-6.661V15.15
		c-1.145-3.778-1.538-7.097-1.646-7.656c5.725-0.261,13.337,0.948,19.065,3.864c2.526,1.287,4.323,2.613,5.586,3.792
		c2.07,1.933,2.7,3.462,2.745,3.758c0.071,0.475,0.012,0.628-0.641,0.999c-0.652,0.371-4.984,1.786-10.474,1.397
		c0,0-6.553-1.109-6.481-1.854c0.043-0.428,4.12-2.684,6.559-2.994c1.145-0.146,3.925-0.738,4.596,0.623
		c0.089,0.185-0.106,0.54-0.258,0.636c-0.107,0.067-0.16-0.029-0.272-0.196c-0.112-0.169-0.626-0.174-0.626-0.174
		s-0.936-0.267-1.004,1.202c-0.067,1.471,1.327,1.509,1.717,1.518c0.393,0.011,2.874-0.421,2.923-2.904
		c0.014-0.759-0.308-1.458-0.797-2.014c-0.599-0.676-1.445-1.141-2.234-1.248c-5.14-0.691-6.024,0.438-8.157,1.201
		c-0.041,0.016-0.083,0.031-0.125,0.047v0.002c-1.852,0.717-3.752,2.619-3.95,2.747c-0.203,0.13-0.465,0.064-0.582,0.03
		c-0.121-0.03-1.159-0.762-1.151-2.02c0.001-0.275,0.025-0.527,0.065-0.757c0.205-1.166,0.832-1.752,1.116-1.829
		c0.378-0.101,0.837-0.096,0.701,0.134c-0.18,0.31,0.079,1.432,0.646,1.689v0.006c0.027,0.007,0.056,0.016,0.084,0.024
		c0.273,0.077,0.836,0.164,1.377-0.024h0.014c0.472-0.174,0.928-0.558,1.156-1.351c1.056-3.666-5.435-4.909-7.486-1.209
		c-0.421,0.762-0.57,1.65-0.535,2.556v0.004c0.078,2.109,1.146,4.312,2.007,5.207c0.522,0.542,1.094,1.023,1.712,1.451v0.006
		c2.516,1.738,5.75,2.588,8.965,2.848c3.816,0.307,6.986-0.101,9.707-1.082c1.779-0.643,2.523-0.914,2.735-1.056
		c0.211-0.143,0.541-0.199,0.662,0.21c0.174,0.585,0.513,0.875,0.356,3.314c-0.059,0.903-0.258,1.718-0.546,2.43
		c-0.746,1.842-2.096,3.005-3.238,3.286c-0.51,0.126-1.251,0.098-1.247-0.261c0-0.357-0.07-0.45,0.024-0.823
		c0.093-0.375,0.242-1.915-2.22-2.088c-3.763-0.264-3.286,5.468,0.625,6.546l3.128,0.005h-3.128
		c0.261,0.065,0.536,0.118,0.828,0.145c0.813,0.077,1.623,0.024,2.413-0.145h0.002c1.735-0.371,3.364-1.314,4.681-2.709
		c0.708-0.748,1.888-1.881,2.562-3.951v-0.005c0.241-0.737,0.417-1.604,0.483-2.618c0.079-1.253-0.034-2.622-0.367-4.044v-0.002
		c-0.505-2.162-1.52-4.452-3.13-6.663V15.15c-0.564-0.771-1.197-1.53-1.907-2.272C85.284,8.599,78.473,5.82,74.766,4.641
		c-3.707-1.178-11.461-1.76-14.476-1.927c-3.278-0.136-5.13-0.275-7.125-0.217c-2.917,1.008-4.958,6.079-4.958,6.079
		c-0.053,0.625-1.237,3.938-1.735,6.521c-0.001,0.014-0.005,0.026-0.008,0.039v0.006c-0.476,2.484-0.873,4.619-1.109,6.661v0.003
		c-0.257,2.213-0.327,4.322-0.108,6.66v0.005c0.122,1.291,0.331,2.66,0.648,4.156c0.197,0.932,0.397,1.747,0.621,2.51
		c0.515,1.753,1.154,3.222,2.156,5.166c1.452,2.807,2.836,4.564,5.366,6.455c2.997,2.24,6.56,3.229,9.142,2.911
		c3.329-0.41,5.954-1.006,7.624-3.978c2.782-4.944,0.099-8.293-2.218-8.382c-2.676-0.104-4.454,3.588-2.072,4.475
		c0.566,0.21,1.39-0.053,1.588-0.565c0.049-0.13,0.184-0.053,0.406,0.12c0.073,0.055,0.209,0.97-0.125,1.837
		c-0.968,2.512-2.896,2.849-4.218,2.884c-1.32,0.037-2.554-0.491-2.674-0.61c-0.118-0.118-0.08-0.168,0.049-0.7
		c0.157-0.644,0.53-3.279,0.829-6.659c0.095-1.073,0.158-2.027,0.162-2.952c0.002-1.514-0.156-2.943-0.604-4.651
		c-0.114-0.429-0.328-1.169-0.68-2.014c-0.911-2.174-2.739-5.044-6.115-5.12c-2.343-0.052-3.02,1.775-3.02,2.213
		c0,0.439,0.106,1.939,1.62,1.998c0.781,0.03,1.369-0.527,1.141-0.921c-0.226-0.395-0.007-0.376,0.103-0.478
		c0.147-0.139,1.534-0.08,0.261,1.797c-0.104,0.155-0.203,0.324-0.299,0.511h-0.003c-0.779,1.534-1.26,4.092-1.502,6.663v0.002
		c-0.007,0.087-0.016,0.176-0.024,0.262c-0.182,2.106,0.316,5.166,2.508,5.189c1.061,0.015,2.54-0.788,2.216-1.873
		c-0.164-0.561-0.721-0.896-1.304-0.786c-0.216,0.042-0.294,0.201-0.513,0.241c-0.216,0.04-0.425,0.169-0.562-0.045
		c-0.376-0.584-0.287-1.339-0.146-2.986v-0.001c0.023-0.274,0.049-0.573,0.073-0.902c0.191-2.566,1.176-4.756,1.7-5.763
		c0.198-0.378,0.332-0.589,0.332-0.589s0.155-0.046,0.379,0.073c0.202,0.105,0.382,0.285,0.544,0.518
		c0.87,1.261,1.195,4.162,1.083,6.664c-0.001,0.025-0.004,0.042-0.004,0.063c-0.172,3.624-0.841,8.464-0.988,8.902
		c-0.13,0.394-0.312,0.651-0.832,0.34c-0.522-0.313-2.761-2.042-4.011-4.125c-0.622-1.032-1.409-2.922-2.018-5.178V35.14
		c-0.552-2.037-0.959-4.378-0.966-6.664v-0.001c0-0.275,0.005-0.557,0.016-0.833c0.087-2.081,0.271-4.034,0.499-5.829h-0.172v-0.002
		h0.172c0.329-2.584,0.752-4.839,1.102-6.664c0.214-1.114,0.401-2.068,0.525-2.841c0.15-0.924,0.971-3.688,1.649-3.688
		c0.579-0.002,0.621,3.618,1.293,5.861c0.067,0.225,0.137,0.444,0.205,0.664v0.002c0.739,2.363,1.625,4.625,2.612,6.667h0.001
		c0.542,1.127,1.117,2.184,1.715,3.156c0.641,1.075,1.562,2.267,2.662,3.507h-0.007c1.946,2.2,4.454,4.549,6.955,6.668h0.006
		c3.329,2.827,6.648,5.24,8.63,6.356c9.304,5.235,16.31,7.865,27.292,7.555c7.631-0.215,14.317-0.922,19.38-2.719
		c3.665-1.301,10.98-5.331,14.812-9.836c0.384-0.452,0.752-0.905,1.098-1.361c1.714-2.248,2.952-4.511,3.68-6.665
		c0.588-1.744,0.844-3.418,0.745-4.958c-0.04-0.62-0.122-1.186-0.235-1.702v-0.005c-0.583-2.663-2.002-4.013-2.809-4.867
		c-0.72-0.761-1.517-1.357-2.373-1.797c-1.424-0.732-3.004-1.025-4.635-0.913c-1.295,0.091-2.3,0.431-3.05,0.913h-0.001
		c-2.965,1.904-1.985,6.054,0.772,6.042c1.398-0.005,1.792-0.755,1.801-1.66c0.003-0.339-0.202-0.817-0.616-1.042
		c-0.297-0.159-0.859,0.061-0.859-0.1c0-0.691,0.569-1.229,1.52-1.229c2.449,0,4.454,0.674,5.368,3.036
		c0.305,0.793-0.352,0.56-0.664,0.663c-0.334,0.112-2.135,0.512-3.813,0.954h-0.002c-0.367,0.099-0.731,0.197-1.068,0.295
		c-2.695,0.787-4.842,1.614-6.808,2.344c-2.072,0.769-4.793,2.026-7.365,4.025c-0.58,0.45-1.151,0.939-1.708,1.468
		c-1.594,1.518-2.944,2.971-3.166,5.197c-0.055,0.529-0.043,1.102,0.042,1.729c0.938,6.872,9.713,5.934,8.689,1.635
		c-0.345-1.454-1.853-1.258-2.361-1.116c-0.628,0.178-1.105,1.136-0.913,1.462c0.135,0.229-0.181,0.57-0.557,0.469
		c-0.34-0.093-1.787-0.74-1.799-2.415c-0.004-0.824,0.126-1.431,0.251-1.763v-0.001c0.065-0.172,0.126-0.269,0.168-0.281
		c0.12-0.032,0.382-0.099,0.586,0.033c0.033,0.023,0.279,0.118,0.677,0.252h0.014c1.866,0.632,7.066,2.068,10.396,0.787
		c0.626-0.242,1.268-0.503,1.891-0.791v-0.001c2.335-1.074,4.4-2.499,4.365-4.479c-0.021-1.055-0.517-1.745-1.098-2.188h-0.001
		c-0.736-0.56-1.605-0.723-1.823-0.717c-0.302,0.008-1.259,0.028-1.648,0.714v0.005c-0.116,0.198-0.181,0.46-0.167,0.793
		c0.067,1.471,1.155,1.271,1.155,1.271s0.458-0.068,0.571-0.236c0.113-0.168,0.176-0.279,0.27-0.198
		c0.095,0.083,0.304,0.298,0.212,0.483c-0.669,1.362-3.245,2.476-5.705,2.946c-2.928,0.559-7.508-0.772-7.55-1.196
		c-0.057-0.592,2.65-2.405,5.324-3.863h0.005c0.689-0.377,1.378-0.729,2.013-1.03c4.309-2.041,7.407-2.422,11.872-2.905
		c0.409-0.044,0.392,0.572,0.372,0.982c-0.029,0.675-0.335,1.709-0.924,2.953h-0.001c-0.909,1.922-2.489,4.329-4.777,6.663v0.002
		c-2.282,2.326-5.265,4.58-8.989,6.206c-6.854,2.995-8.407,3.383-14.052,3.456c-0.769,0.01-1.973-0.035-1.973-0.035l0.042-0.349
		c0,0.083,0.262-3.701,2.658-9.275v-0.003c0.625-1.447,1.392-3.02,2.34-4.677c0.393-0.688,0.787-1.348,1.183-1.988
		c1.603-2.592,3.218-4.79,4.809-6.663v-0.002c2.483-2.922,4.906-5.053,7.136-6.664h0.005c0.241-0.179,0.481-0.349,0.718-0.511
		c4.166-2.865,10.09-4.447,12.393-5.208c2.269-0.747,7.187-1.472,7.134-0.847c-0.052,0.625-1.237,3.938-1.733,6.521
		c-0.002,0.012-0.852,5.132-1.112,6.709l-0.001,0.006h-0.002c-0.005,0.04-0.008,0.078-0.013,0.117
		c0.001-0.008,0.003-0.018,0.004-0.025l-0.043,0.36c-0.216,2.045-0.262,4.024-0.059,6.201v0.005c0.12,1.291,0.332,2.66,0.647,4.156
		c0.198,0.941,0.401,1.754,0.628,2.51c0.514,1.706,1.151,3.114,2.15,5.048c1.449,2.807,2.834,4.682,5.364,6.572
		c2.997,2.24,6.563,3.229,9.142,2.911c3.329-0.41,5.955-1.006,7.624-3.978c2.783-4.944,0.1-8.293-2.216-8.382
		c-2.678-0.104-4.457,3.588-2.074,4.475c0.564,0.21,1.39-0.053,1.587-0.565c0.05-0.13,0.184-0.053,0.407,0.12
		c0.073,0.055,0.209,0.97-0.124,1.837c-0.97,2.512-2.899,2.849-4.219,2.884c-1.322,0.037-2.555-0.491-2.674-0.61
		c-0.12-0.118-0.081-0.168,0.048-0.7c0.16-0.644,0.53-3.279,0.831-6.659c0.094-1.073,0.158-2.027,0.162-2.952
		c0.003-1.514-0.155-2.943-0.605-4.651c-0.113-0.429-0.327-1.169-0.68-2.014c-0.909-2.174-2.738-5.044-6.113-5.12
		c-2.344-0.052-3.022,1.775-3.022,2.213c0,0.439,0.108,1.939,1.62,1.998c0.781,0.03,1.369-0.527,1.143-0.921
		c-0.227-0.395-0.007-0.376,0.101-0.478c0.147-0.139,1.536-0.08,0.261,1.797c-0.102,0.155-0.203,0.324-0.298,0.511h-0.003
		c-0.781,1.534-1.263,4.092-1.502,6.663h0.106v0.002h-0.106c-0.01,0.087-0.019,0.176-0.026,0.262
		c-0.181,2.106,0.315,5.166,2.507,5.189c1.062,0.015,2.539-0.788,2.216-1.873c-0.167-0.561-0.721-0.896-1.305-0.786
		c-0.216,0.042-0.294,0.201-0.512,0.241c-0.216,0.04-0.424,0.169-0.562-0.045c-0.377-0.584-0.287-1.339-0.147-2.986h-0.056v-0.001
		h0.056c0.024-0.274,0.048-0.573,0.072-0.902c0.192-2.566,1.178-4.756,1.701-5.763c0.199-0.378,0.33-0.589,0.33-0.589
		s0.158-0.046,0.382,0.073c0.202,0.105,0.381,0.285,0.544,0.518h0.002c0.869,1.261,1.192,4.162,1.082,6.664h-0.001
		c0,0.025-0.002,0.042-0.002,0.063c-0.174,3.624-0.843,8.464-0.99,8.902c-0.13,0.394-0.315,0.651-0.833,0.34
		c-0.522-0.313-2.759-2.042-4.01-4.125c-0.621-1.032-1.407-2.922-2.017-5.178v-0.001c-0.552-2.037-0.959-4.378-0.967-6.664v-0.001
		c0-0.275,0.005-0.557,0.016-0.833c0.085-2.081,0.27-4.034,0.497-5.829h-0.023l-0.103,0.009l0.001-0.009h0.101l0.023-0.002
		c0.331-2.584,0.752-4.839,1.102-6.664c0.215-1.114,0.402-2.068,0.527-2.841c0.149-0.924,0.969-3.688,1.648-3.688
		c0.579-0.002,0.621,3.619,1.293,5.861c0.066,0.224,0.136,0.444,0.204,0.666c0.737,2.34,1.635,4.618,2.623,6.667h0.002
		c0.545,1.134,1.118,2.192,1.705,3.156c0.642,1.075,1.562,2.267,2.661,3.507h0.001c1.948,2.2,4.455,4.549,6.955,6.668h0.007
		c3.328,2.827,6.649,5.24,8.632,6.356c9.301,5.235,16.309,7.865,27.29,7.555c7.629-0.215,14.316-0.922,19.379-2.719
		c3.666-1.301,10.979-5.331,14.812-9.836c0.386-0.452,0.752-0.905,1.097-1.361c1.715-2.248,2.953-4.511,3.681-6.665
		c0.589-1.744,0.844-3.418,0.744-4.958c-0.04-0.62-0.122-1.186-0.234-1.702V21.81c-0.583-2.663-2.002-4.013-2.808-4.867
		c-0.72-0.761-1.518-1.357-2.372-1.797c-1.425-0.732-3.004-1.025-4.635-0.913c-1.296,0.091-2.3,0.431-3.052,0.913h-0.002
		c-2.963,1.904-1.983,6.054,0.773,6.042c1.398-0.005,1.792-0.755,1.802-1.66c0.003-0.339-0.202-0.817-0.617-1.042
		c-0.296-0.159-0.861,0.061-0.861-0.1c0-0.691,0.572-1.229,1.521-1.229c2.45,0,4.455,0.674,5.369,3.036
		c0.306,0.793-0.353,0.56-0.664,0.663c-0.334,0.112-2.135,0.512-3.812,0.954h-0.005c-0.366,0.099-0.727,0.197-1.066,0.295
		c-2.696,0.787-4.841,1.614-6.808,2.344c-2.071,0.769-4.793,2.026-7.365,4.025c-0.579,0.45-1.152,0.939-1.709,1.468
		c-1.592,1.518-2.942,2.971-3.165,5.197c-0.054,0.529-0.044,1.102,0.042,1.729c0.938,6.872,9.714,5.934,8.69,1.635
		c-0.345-1.454-1.853-1.258-2.364-1.116c-0.627,0.178-1.104,1.136-0.91,1.462c0.135,0.229-0.182,0.57-0.557,0.469
		c-0.341-0.093-1.789-0.74-1.801-2.415c-0.005-0.824,0.127-1.431,0.251-1.763h-0.163V35.14h0.163
		c0.066-0.172,0.128-0.269,0.169-0.281c0.12-0.032,0.38-0.099,0.584,0.033c0.035,0.023,0.278,0.118,0.677,0.252h0.015
		c1.866,0.632,7.067,2.068,10.395,0.787c0.629-0.242,1.27-0.503,1.894-0.791v-0.001c2.335-1.074,4.399-2.499,4.363-4.479
		c-0.019-1.055-0.517-1.745-1.097-2.188h-0.001c-0.736-0.56-1.605-0.723-1.823-0.717c-0.301,0.008-1.259,0.028-1.648,0.714v0.005
		c-0.115,0.198-0.182,0.46-0.166,0.793c0.069,1.472,1.156,1.271,1.156,1.271s0.456-0.068,0.57-0.236
		c0.115-0.168,0.177-0.279,0.271-0.198c0.094,0.083,0.302,0.298,0.211,0.483c-0.669,1.362-3.246,2.476-5.706,2.946
		c-2.927,0.559-7.508-0.772-7.547-1.196c-0.06-0.592,2.649-2.405,5.322-3.863h0.003c0.691-0.377,1.376-0.729,2.014-1.03
		c4.309-2.042,7.41-2.422,11.872-2.905c0.409-0.044,0.393,0.572,0.375,0.982c-0.03,0.675-0.335,1.709-0.926,2.953h-0.002
		c-0.906,1.922-2.485,4.329-4.776,6.663v0.002c-2.28,2.326-5.265,4.58-8.988,6.206c-6.855,2.995-8.408,3.383-14.051,3.456
		c-0.771,0.01-1.973-0.035-1.973-0.035l0.039-0.349c0,0.083,0.264-3.701,2.659-9.275h-0.042l-0.119,0.009
		c0.001-0.002,0.001-0.006,0.001-0.009h0.117l0.042-0.003c0.627-1.447,1.395-3.02,2.341-4.677c0.394-0.688,0.786-1.348,1.182-1.988
		c1.603-2.592,3.218-4.79,4.809-6.663v-0.002c2.483-2.922,4.906-5.053,7.136-6.664h0.005c0.241-0.179,0.482-0.349,0.718-0.511
		c4.168-2.865,10.091-4.447,12.393-5.208c2.269-0.747,7.188-1.472,7.134-0.847c-0.05,0.625-1.235,3.938-1.732,6.521
		c-0.003,0.015-0.005,0.026-0.008,0.039v0.006c-0.477,2.484-0.875,4.619-1.109,6.661h0.033c0,0-0.004,0.002-0.005,0.003h-0.047
		c-0.001,0.008-0.001,0.017-0.003,0.023c0,0.003-0.011,0.005-0.011,0.008c0,0.001,0.011,0.005,0.011,0.007
		c-0.254,2.199-0.094,6.748-0.089,6.757c0.122,1.254,0.324,2.578,0.632,4.025c0.198,0.941,0.4,1.754,0.628,2.51
		c0.513,1.706,1.151,3.114,2.149,5.048c1.45,2.807,2.834,4.682,5.364,6.572c2.998,2.24,6.563,3.229,9.145,2.911
		c3.326-0.41,5.952-1.006,7.62-3.978c2.784-4.944,0.101-8.293-2.216-8.382c-2.676-0.104-4.455,3.588-2.072,4.475
		c0.566,0.21,1.389-0.053,1.588-0.565c0.049-0.13,0.182-0.053,0.407,0.12c0.073,0.055,0.208,0.97-0.126,1.837
		c-0.969,2.512-2.896,2.849-4.219,2.884c-1.32,0.037-2.555-0.491-2.674-0.61c-0.121-0.118-0.08-0.168,0.049-0.7
		c0.156-0.644,0.529-3.279,0.83-6.659c0.095-1.073,0.158-2.027,0.16-2.952h-0.002c0.004-1.514-0.152-2.943-0.604-4.651
		c-0.111-0.429-0.326-1.169-0.68-2.014c-0.908-2.174-2.737-5.044-6.112-5.12c-2.343-0.052-3.021,1.775-3.021,2.213
		c0,0.439,0.105,1.939,1.617,1.998c0.783,0.03,1.369-0.527,1.145-0.921c-0.227-0.395-0.008-0.376,0.101-0.478
		c0.149-0.139,1.537-0.08,0.261,1.797c-0.103,0.155-0.203,0.324-0.298,0.511h-0.004c-0.778,1.534-1.502,6.665-1.502,6.665
		c-0.008,0.087-0.017,0.176-0.024,0.262c-0.184,2.106,0.314,5.166,2.506,5.189c1.063,0.015,2.541-0.788,2.22-1.873
		c-0.168-0.561-0.724-0.896-1.306-0.786c-0.215,0.042-0.295,0.201-0.515,0.241c-0.215,0.04-0.423,0.169-0.562-0.045
		c-0.377-0.583-0.146-2.987-0.146-2.987c0.022-0.274,0.048-0.573,0.071-0.901c0.191-2.567,1.176-4.757,1.701-5.764
		c0.199-0.378,0.328-0.589,0.328-0.589s0.158-0.046,0.384,0.073c0.198,0.105,0.381,0.285,0.544,0.518h0.001
		c0.868,1.262,1.192,4.162,1.081,6.664h-0.001c0,0.025-0.002,0.042-0.002,0.063c-0.175,3.624-0.843,8.464-0.99,8.902
		c-0.128,0.394-0.312,0.651-0.833,0.34c-0.52-0.313-2.758-2.042-4.009-4.125c-0.621-1.032-1.409-2.922-2.017-5.178v-0.001
		c-0.553-2.037-0.968-6.665-0.968-6.665c0-0.275,0.005-0.557,0.017-0.833c0.084-2.081,0.498-5.831,0.498-5.831
		c0.33-2.584,0.748-4.839,1.103-6.664c0.214-1.114,0.399-2.068,0.524-2.841c0.148-0.924,0.97-3.688,1.648-3.688
		c0.581-0.002,0.62,3.619,1.292,5.861c0.067,0.224,0.134,0.443,0.205,0.664v0.002c0.735,2.335,1.636,4.616,2.626,6.667h0.002
		c0.544,1.134,1.115,2.194,1.703,3.156c0.639,1.075,1.561,2.268,2.66,3.507h0.003c1.944,2.2,4.453,4.549,6.955,6.668h0.005
		c3.327,2.827,6.648,5.24,8.63,6.356c9.304,5.236,16.31,7.865,27.292,7.555c7.629-0.215,14.316-0.922,19.38-2.719
		c3.666-1.301,10.979-5.331,14.813-9.836c0.385-0.452,0.751-0.905,1.098-1.361c1.714-2.248,2.952-4.511,3.681-6.665
		c0.586-1.744,0.844-3.418,0.742-4.958c-0.039-0.62-0.12-1.186-0.233-1.702v-0.005c-0.584-2.663-2.001-4.013-2.81-4.867
		c-0.719-0.761-1.517-1.357-2.372-1.797c-1.424-0.732-3.005-1.025-4.635-0.913c-1.294,0.091-2.302,0.431-3.051,0.913h-0.003
		c-2.963,1.904-1.985,6.054,0.773,6.042c1.398-0.005,1.791-0.755,1.801-1.66c0.004-0.339-0.201-0.817-0.614-1.042
		c-0.299-0.159-0.859,0.061-0.859-0.1c0-0.691,0.567-1.229,1.52-1.229c2.447,0,4.454,0.674,5.365,3.036
		c0.309,0.794-0.351,0.56-0.663,0.663c-0.332,0.112-2.134,0.512-3.811,0.954h-0.004c-0.367,0.099-0.729,0.197-1.067,0.295
		c-2.694,0.787-4.842,1.614-6.809,2.344c-2.07,0.769-4.793,2.026-7.363,4.025c-0.581,0.45-1.151,0.939-1.71,1.468
		c-1.587,1.512-2.93,2.962-3.161,5.176c-0.003,0.013-0.023,0.022-0.023,0.034c0,0.01,0.018,0.018,0.02,0.027
		c-0.047,0.518-0.041,1.074,0.042,1.688c0.938,6.872,9.714,5.934,8.69,1.635c-0.345-1.454-1.853-1.258-2.363-1.116
		c-0.627,0.178-1.104,1.136-0.91,1.462c0.132,0.229-0.181,0.57-0.557,0.469c-0.343-0.093-1.788-0.74-1.8-2.415
		c-0.006-0.824,0.249-1.765,0.249-1.765c0.066-0.172,0.129-0.269,0.171-0.281c0.119-0.032,0.382-0.099,0.583,0.033
		c0.036,0.023,0.278,0.118,0.678,0.252h0.015c1.865,0.632,7.067,2.068,10.396,0.787c0.627-0.242,1.268-0.503,1.89-0.791v-0.001
		c2.337-1.074,4.4-2.499,4.365-4.479c-0.021-1.055-0.517-1.745-1.1-2.188h-0.001c-0.736-0.56-1.603-0.723-1.82-0.717
		c-0.302,0.008-1.259,0.028-1.65,0.714v0.005c-0.111,0.198-0.18,0.46-0.165,0.793c0.067,1.471,1.156,1.271,1.156,1.271
		s0.457-0.068,0.569-0.236s0.176-0.279,0.271-0.198c0.097,0.083,0.306,0.298,0.212,0.483c-0.668,1.362-3.245,2.476-5.705,2.946
		c-2.929,0.559-7.508-0.772-7.551-1.196c-0.059-0.592,2.652-2.405,5.327-3.863h0.003c0.691-0.377,1.376-0.729,2.016-1.03
		c4.308-2.041,7.404-2.422,11.87-2.905c0.407-0.044,0.39,0.572,0.369,0.982c-0.029,0.675-0.333,1.709-0.923,2.953h-0.003
		c-0.907,1.922-2.486,4.329-4.775,6.663v0.002c-2.281,2.326-5.266,4.58-8.988,6.206c-6.855,2.995-8.407,3.383-14.053,3.456
		c-0.77,0.01-1.973-0.035-1.973-0.035l0.04-0.349c0,0.083,2.66-9.278,2.66-9.278c0.624-1.447,1.393-3.02,2.338-4.677
		c0.395-0.688,0.788-1.349,1.182-1.988c1.606-2.592,3.22-4.79,4.811-6.663v-0.002c2.482-2.922,4.908-5.053,7.136-6.664h0.005
		c0.242-0.179,0.482-0.349,0.72-0.511c4.166-2.865,10.091-4.447,12.392-5.208c2.271-0.747,7.189-1.472,7.136-0.847
		c-0.052,0.625-1.237,3.938-1.734,6.521c-0.003,0.014-0.005,0.026-0.008,0.039v0.006c-0.477,2.484-0.874,4.619-1.107,6.661h0.039
		c0,0,0.005,0.002,0.005,0.003h-0.044c-0.258,2.197-0.107,6.665-0.107,6.665c0.121,1.291,0.329,2.66,0.646,4.156
		c0.198,0.941,0.401,1.754,0.629,2.51c0.514,1.706,1.15,3.114,2.147,5.048c1.451,2.807,2.835,4.682,5.366,6.572
		c2.996,2.24,6.561,3.229,9.142,2.911c3.329-0.41,5.953-1.006,7.624-3.978c2.783-4.944,0.099-8.293-2.218-8.382
		c-2.676-0.104-4.456,3.588-2.072,4.475c0.565,0.21,1.39-0.053,1.588-0.565c0.049-0.13,0.184-0.053,0.404,0.12
		c0.075,0.055,0.21,0.97-0.123,1.837c-0.969,2.512-2.896,2.849-4.217,2.884c-1.323,0.037-2.556-0.491-2.677-0.61
		c-0.118-0.118-0.079-0.168,0.051-0.7c0.156-0.644,0.529-3.279,0.829-6.659c0.096-1.073,0.159-2.027,0.162-2.952
		c0.003-1.514-0.157-2.943-0.604-4.651c-0.114-0.429-0.329-1.169-0.681-2.014c-0.912-2.174-2.738-5.044-6.115-5.12
		c-2.343-0.052-3.02,1.775-3.02,2.213c0,0.439,0.106,1.939,1.62,1.998c0.779,0.03,1.367-0.527,1.141-0.921
		c-0.225-0.395-0.007-0.376,0.103-0.478c0.147-0.139,1.534-0.08,0.262,1.797c-0.106,0.155-0.203,0.324-0.3,0.511h-0.003
		c-0.78,1.534-1.509,6.675-1.509,6.679c0,0.002,0.004,0.005,0.004,0.007c-0.008,0.08-0.014,0.159-0.022,0.242
		c-0.182,2.106,0.316,5.166,2.508,5.189c1.063,0.015,2.539-0.788,2.217-1.873c-0.166-0.561-0.72-0.896-1.304-0.786
		c-0.217,0.042-0.295,0.201-0.513,0.241c-0.217,0.04-0.424,0.169-0.563-0.045c-0.376-0.584-0.288-1.339-0.145-2.986h-0.018
		c0,0-0.002,0-0.002-0.001h0.02c0.021-0.274,0.047-0.573,0.07-0.901c0.192-2.567,1.178-4.757,1.701-5.764
		c0.198-0.378,0.33-0.589,0.33-0.589s0.156-0.046,0.383,0.073c0.199,0.105,0.38,0.285,0.542,0.518h0.002
		c0.867,1.262,1.193,4.162,1.079,6.664c0,0.025-0.001,0.042-0.001,0.063c-0.173,3.624-0.842,8.464-0.987,8.902
		c-0.132,0.394-0.314,0.651-0.832,0.341c-0.523-0.313-2.763-2.042-4.013-4.125c-0.623-1.033-1.409-2.923-2.019-5.179v-0.001
		c-0.552-2.037-0.957-4.378-0.966-6.664v-0.001c0-0.275,0.005-0.557,0.017-0.833c0.086-2.081,0.271-4.034,0.498-5.829h-0.057
		l0.003-0.002h0.054c0.332-2.584,0.751-4.839,1.103-6.664c0.213-1.114,0.402-2.068,0.525-2.841c0.148-0.924,0.97-3.688,1.649-3.688
		c0.577-0.002,0.619,3.619,1.293,5.861c0.065,0.224,0.133,0.444,0.202,0.662v0.004c0.767,2.445,1.634,4.65,2.639,6.667h0.001
		c0.505,1.022,1.047,1.992,1.622,2.921c0.677,1.136,1.665,2.411,2.847,3.741c1.95,2.199,4.426,4.545,6.889,6.665
		c3.293,2.835,6.563,5.259,8.522,6.361c9.303,5.236,16.31,7.865,27.292,7.555c7.631-0.215,14.317-0.922,19.38-2.719
		c3.664-1.301,10.98-5.331,14.811-9.836c0.386-0.452,0.751-0.905,1.1-1.361c1.712-2.248,2.951-4.511,3.679-6.665
		c0.588-1.744,0.842-3.418,0.744-4.958c-0.039-0.62-0.12-1.186-0.234-1.702v-0.005c-0.583-2.663-2.004-4.013-2.809-4.867
		c-0.72-0.761-1.517-1.357-2.372-1.797c-1.424-0.732-3.005-1.025-4.637-0.913c-1.292,0.091-2.298,0.431-3.051,0.913
		c-2.965,1.904-1.985,6.054,0.771,6.042c1.4-0.005,1.792-0.755,1.802-1.659c0.003-0.34-0.202-0.818-0.614-1.042
		c-0.3-0.16-0.861,0.06-0.861-0.101c0-0.69,0.569-1.229,1.521-1.229c2.448,0,4.456,0.674,5.367,3.037
		c0.308,0.793-0.352,0.559-0.665,0.662c-0.333,0.112-2.133,0.512-3.812,0.954h-0.002c-0.367,0.099-0.729,0.197-1.066,0.295
		c-2.698,0.787-4.845,1.614-6.81,2.344c-2.069,0.769-4.793,2.026-7.363,4.025c-0.58,0.45-1.154,0.939-1.71,1.468
		c-1.592,1.518-2.943,2.971-3.164,5.197c-0.056,0.529-0.045,1.102,0.04,1.729c0.937,6.872,9.715,5.934,8.69,1.635
		c-0.347-1.454-1.854-1.258-2.364-1.116c-0.626,0.178-1.104,1.136-0.911,1.462c0.136,0.229-0.181,0.57-0.56,0.47
		c-0.339-0.094-1.786-0.741-1.797-2.415c-0.004-0.825,0.127-1.432,0.252-1.764h-0.049c0,0-0.002,0-0.002-0.001h0.051
		c0.064-0.172,0.127-0.269,0.168-0.281c0.12-0.032,0.382-0.099,0.584,0.033c0.034,0.023,0.279,0.118,0.679,0.252h0.015
		c1.865,0.632,7.065,2.068,10.396,0.787c0.625-0.242,1.268-0.503,1.892-0.791v-0.001c2.334-1.074,4.398-2.499,4.363-4.479
		c-0.021-1.055-0.518-1.745-1.099-2.188h-0.002c-0.734-0.56-1.604-0.723-1.822-0.717c-0.3,0.008-1.257,0.028-1.647,0.714v0.005
		c-0.115,0.198-0.181,0.46-0.166,0.793c0.066,1.472,1.154,1.271,1.154,1.271s0.457-0.068,0.571-0.236
		c0.11-0.168,0.175-0.279,0.271-0.198c0.093,0.083,0.299,0.298,0.21,0.483c-0.67,1.362-3.245,2.476-5.705,2.946
		c-2.929,0.559-7.508-0.772-7.551-1.196c-0.057-0.592,2.649-2.405,5.325-3.863h0.004c0.688-0.377,1.377-0.729,2.012-1.029
		c4.309-2.041,7.411-2.423,11.873-2.906c0.409-0.044,0.391,0.573,0.371,0.982c-0.03,0.676-0.335,1.709-0.923,2.953h-0.002
		c-0.908,1.922-2.487,4.329-4.776,6.663v0.002c-2.28,2.326-5.264,4.58-8.99,6.206c-6.854,2.995-8.405,3.383-14.051,3.456
		c-0.771,0.01-1.975-0.035-1.975-0.035l0.04-0.349c0,0.083,2.66-9.278,2.66-9.278c0.624-1.447,1.394-3.02,2.34-4.677
		c0.393-0.688,0.788-1.348,1.184-1.988c1.603-2.592,3.217-4.79,4.809-6.663v-0.002c2.482-2.922,4.906-5.053,7.137-6.664h0.005
		c0.24-0.179,0.48-0.349,0.719-0.511c4.164-2.865,10.088-4.447,12.393-5.208c2.269-0.747,7.187-1.472,7.135-0.847
		s-1.239,3.938-1.732,6.521c-0.004,0.015-0.005,0.026-0.01,0.039v0.006c-0.475,2.484-0.842,4.619-1.034,6.661v0.003
		c-0.215,2.213-0.229,4.322,0.021,6.66v0.005c0.142,1.291,0.363,2.66,0.679,4.156c0.198,0.942,0.378,1.754,0.574,2.51
		c0.445,1.706,0.969,3.114,1.967,5.048c1.449,2.807,2.836,4.682,5.366,6.572c2.997,2.24,6.561,3.229,9.143,2.911
		c3.328-0.41,5.95-1.006,7.623-3.978c2.782-4.944,0.101-8.293-2.218-8.382c-2.676-0.104-4.456,3.588-2.072,4.475
		c0.564,0.21,1.392-0.053,1.586-0.565c0.05-0.13,0.184-0.053,0.408,0.12c0.073,0.055,0.21,0.97-0.124,1.837
		c-0.969,2.512-2.899,2.849-4.22,2.884c-1.32,0.037-2.559-0.49-2.673-0.61c-0.12-0.118-0.08-0.168,0.049-0.7
		c0.158-0.644,0.529-3.279,0.828-6.659c0.095-1.073,0.16-2.027,0.161-2.952c0.005-1.514-0.153-2.942-0.604-4.65
		c-0.115-0.43-0.328-1.169-0.682-2.015c-0.909-2.174-2.737-5.044-6.113-5.12c-2.342-0.052-3.021,1.775-3.021,2.213
		c0,0.439,0.106,1.939,1.62,1.998c0.784,0.03,1.37-0.527,1.144-0.921c-0.227-0.395-0.007-0.376,0.102-0.478
		c0.15-0.138,1.536-0.08,0.261,1.797c-0.104,0.155-0.203,0.324-0.3,0.511h-0.002c-0.78,1.534-1.262,4.092-1.503,6.663h0.041v0.002
		h-0.041c-0.006,0.087-0.017,0.176-0.023,0.262c-0.183,2.106,0.314,5.166,2.507,5.189c1.063,0.015,2.54-0.788,2.218-1.873
		c-0.166-0.561-0.721-0.896-1.304-0.786c-0.221,0.042-0.298,0.201-0.514,0.241c-0.217,0.04-0.426,0.169-0.563-0.045
		c-0.371-0.572-0.289-1.321-0.152-2.904c0.001-0.011,0.016-0.021,0.016-0.032c0-0.007-0.01-0.015-0.011-0.021
		c0.001-0.012,0.001-0.017,0.003-0.028h-0.02v-0.001h0.02c0.021-0.274,0.047-0.573,0.071-0.901c0.189-2.567,1.176-4.757,1.702-5.764
		c0.193-0.378,0.327-0.589,0.327-0.589s0.157-0.046,0.382,0.073c0.2,0.105,0.383,0.285,0.544,0.518h0.002
		c0.867,1.262,1.191,4.162,1.081,6.664c0,0.025-0.002,0.042-0.002,0.063c-0.176,3.624-0.843,8.464-0.991,8.902
		c-0.13,0.394-0.313,0.651-0.834,0.341c-0.521-0.313-2.759-2.042-4.008-4.125c-0.622-1.033-1.409-2.923-2.018-5.179v-0.001
		c-0.553-2.037-0.958-4.378-0.968-6.664v-0.001c0-0.275,0.006-0.557,0.018-0.833c0.085-2.081,0.269-4.033,0.498-5.829v-0.002
		c0.33-2.586,0.751-4.839,1.101-6.664c0.213-1.114,0.402-2.068,0.527-2.841c0.147-0.924,0.97-3.688,1.646-3.688
		c0.581-0.002,0.62,3.619,1.293,5.861c0.068,0.225,0.136,0.444,0.203,0.664v0.002c0.767,2.443,1.633,4.647,2.636,6.663v0.001
		c1.228,2.466,2.65,4.653,4.337,6.665c1.643,1.968,3.533,3.767,5.722,5.493c0.48,0.378,0.971,0.771,1.472,1.172
		c5.208,4.164,11.65,9.345,20.868,12.001c0,0-0.07-5.716-1.576-6.264c-1.507-0.547-3.14-1.411-5.414-2.562
		c-1.63-0.825-5.428-3.176-5.428-3.176c-2.355-1.6-4.993-3.712-7.971-6.67h-0.005c-0.886-0.884-1.802-1.84-2.748-2.877
		c-1.081-1.184-2.001-2.467-2.787-3.785h-0.002c-1.327-2.229-2.924-6.661-2.924-6.661c-1.303-4.144-1.527-7.436-1.527-7.436
		s-0.132-0.302-0.073-0.307c6.291-0.555,11.842,0.786,18.662,3.858c2.697,1.216,4.612,2.608,5.945,3.877v0.006
		c2.038,1.933,2.723,3.582,2.785,3.864c0.105,0.467-0.261,0.625-0.887,1.042c-0.623,0.416-6.211,1.665-10.189,1.225
		c-2.627-0.29-6.533-1.486-6.549-1.75c-0.02-0.428,3.799-2.578,6.228-2.986c1.135-0.191,4.214-0.834,4.976,0.479
		c0.103,0.179-0.141,0.605-0.229,0.693c-0.088,0.089-0.157-0.017-0.283-0.177c-0.125-0.16-0.586-0.195-0.586-0.195
		s-1.099-0.124-1.062,1.348c0.033,1.47,1.521,1.399,1.913,1.381c0.389-0.018,2.836-0.62,2.711-3.103
		c-0.033-0.706-0.352-1.326-0.814-1.822c-0.637-0.686-1.55-1.14-2.379-1.275c-3.957-0.646-6.302,0.313-8.084,1.275h-0.009
		c-0.514,0.281-0.98,0.561-1.427,0.8c-1.082,0.582-2.318,1.771-2.512,1.916c-0.191,0.144-0.459,0.096-0.58,0.072
		c-0.122-0.024-1.114-0.819-1.195-2.072c-0.018-0.261-0.006-0.499,0.03-0.716c0.181-1.187,0.994-1.762,1.276-1.86
		c0.367-0.127,0.677,0.018,0.558,0.256c-0.102,0.205-0.093,0.865,0.101,1.218c0.194,0.354,0.577,0.557,1.143,0.557
		c0.243,0,0.842-0.17,0.842-0.17c0.527-0.167,1.041-0.58,1.208-1.485c0.799-4.349-7.258-4.424-7.86,0.115
		c-0.063,0.478-0.093,0.933-0.091,1.37v0.005c0.013,2.73,1.243,4.698,3.018,6.229c0.171,0.148,0.359,0.292,0.562,0.433
		c2.256,1.581,6.302,2.754,9.098,2.86c3.773,0.142,6.883-0.049,9.426-0.976c1.777-0.648,2.939-1.115,3.141-1.271
		c0.201-0.158,0.185-0.037,0.476,0.276c0.29,0.313,0.725,3.019-0.037,5.436c-0.036,0.117-0.076,0.23-0.119,0.339
		c-0.855,2.187-2.934,3.255-3.423,3.362c-0.515,0.11-1.074-0.037-1.095-0.394c-0.025-0.358,0.002-0.536,0.067-0.917
		c0.069-0.382,0.108-1.929-2.357-1.929c-3.649,0-3.013,5.439,0.618,6.542c0.376,0.113,0.783,0.181,1.223,0.192
		c0.883,0.021,1.628-0.04,2.304-0.19v-0.001c1.323-0.292,2.375-0.924,3.655-1.94c1.804-1.429,3.073-2.824,3.718-4.725h0.002
		c0.324-0.963,0.49-2.053,0.483-3.342c-0.006-1.059-0.168-2.174-0.483-3.32V21.818z"/>
	<path fill="#DB3BC8" stroke="#DB3BC8" stroke-width="0.25" stroke-miterlimit="10" d="M44.967,23.513
		c-0.019-0.315-0.051-0.616-0.091-0.904l-0.027,3.334C44.977,25.104,45.018,24.291,44.967,23.513z"/>
</g>
</svg>
