<?xml version="1.0" encoding="utf-8"?>
<!-- Generator: Adobe Illustrator 15.0.0, SVG Export Plug-In . SVG Version: 6.00 Build 0)  -->
<!DOCTYPE svg PUBLIC "-//W3C//DTD SVG 1.1//EN" "http://www.w3.org/Graphics/SVG/1.1/DTD/svg11.dtd">
<svg version="1.1" id="Layer_1" xmlns="http://www.w3.org/2000/svg" xmlns:xlink="http://www.w3.org/1999/xlink" x="0px" y="0px"
	 width="130px" height="66.5px" viewBox="0 0 130 66.5" enable-background="new 0 0 130 66.5" xml:space="preserve">
<path fill="#D52F27" d="M73.458,14.75c-0.824-1.215-8.94,7.577-8.192,5.869c0.748-1.708,6.593-10.98,5.938-13.629
	c-0.654-2.65-9.875,11.352-10.061,10.316c-0.187-1.037,5.45-16.958,1.319-14.59C59.764,4.26,54.63,17.157,54.63,17.157
	S57.609,2.066,56.2,1.969c-4.842-0.333-10.659,20.913-10.771,21.325c0,0.017-0.005,0.019-0.005,0.019s0.004-0.015,0.005-0.019
	c0.001-0.068-0.077-0.437-0.907-2.479c-1.993-4.9-3.094-11.847-5.347-4.169c-3.304,11.266,3.863,27.863,6.583,29.759
	c0.28,0.194,0.621,0.368,0.991,0.53c7.23-2.971,15.387-7.601,14.934-12.451c-0.74-7.919-9.637-7.476-11.39-5.189
	c-4.156,5.421,2.276,8.198,4.093,5.51c1.817-2.688-0.682-4.813-0.682-4.813c1.447,0.463,3.429,0.71,3.985,2.979
	c0.555,2.271,0.552,5.175-4.116,7.337c-4.846,2.243-9.554-3.404-9.569-7.173c-0.023-5.886,2.794-10.219,10.584-10.219
	c6.17,0,10.895,2.467,13.391,6.509c0.383-1.425,0.752-2.707,1.045-3.592C70.063,22.712,74.82,16.765,73.458,14.75"/>
<path d="M68.398,42.368l3.867,10.096c0.064,0.131,0.064,0.263,0.064,0.329c0,0.393-0.452,0.59-1.29,0.59h-4.254
	c-1.678,0-2.452-0.262-2.452-0.721c0-0.59,0.322-1.377,0.451-1.641L68.398,42.368z M64.142,63.479c-1.418,0-3.868-0.918-3.03-3.016
	l1.547-3.869c0.516-1.246,0.581-1.246,0.774-1.443c0.193-0.195,1.161-0.327,2.064-0.327h6.253c1.419,0,1.611,0.394,2.32,2.032
	l1.871,4.393c0.387,0.918,0.129,1.509-1.226,1.771l-1.868,0.394c-0.774,0.131-0.97,0.131-0.97,0.459s0.194,0.524,0.71,0.524
	l8.188-0.263l5.48,0.132c0.389,0,0.516-0.132,0.516-0.525c0-0.524-0.191-0.656-1.289-0.656c-1.096,0-2.256-0.786-2.902-2.361
	l-8.832-21.176c-0.258-0.59-0.322-1.638-0.322-2.031c0-0.918-0.129-1.442-0.451-1.442s-0.838,0.196-1.16,0.262l-7.479,1.181
	c-0.193,0-0.322,0.262-0.322,0.394c0,0.327,0.516,0.589,1.096,0.851l1.482,0.656c0.839,0.393,0.774,0.721,0.709,0.917l-8.059,19.733
	c-1.032,2.558-2.45,3.213-3.61,3.278c-1.16,0.066-1.805-0.063-1.805,0.591c0,0.394,0.452,0.459,1.096,0.459s2.901-0.328,4.319-0.328
	c1.032,0,4.9,0.459,5.61,0.394c0.515-0.065,0.773-0.262,0.773-0.655c0-0.262-0.128-0.328-0.386-0.328h-1.096V63.479z"/>
<path d="M33.401,44.941c0-0.328,0-0.657-0.194-1.049c-0.193-0.592-0.387-1.641-0.58-3.148l-0.388-2.623
	c-0.193-1.113-0.387-1.441-1.16-1.441c-5.287,0-10.059,0.59-14.313,0.525l-7.093-0.066c-1.483,0-2.386-0.263-5.158-0.263
	c-1.161,0-1.548,0.656-1.935,4.196C2.258,44.22,2,44.811,2,45.334c0,0.395,0.258,0.721,0.58,0.721c0.129,0,0.387-0.132,0.516-0.326
	l4.256-6.427c0.451-0.655,1.225-0.983,3.674-0.983h2.45c0.774,0,1.162,0.589,1.162,1.771v20.455c0,2.163-0.388,2.754-3.29,3.147
	c-0.902,0.064-1.16,0.131-1.16,0.394v0.524c0,0.263,0.515,0.132,1.032,0.132h13.476c0.451,0,0.966,0.065,0.966-0.132l0.064-0.59
	c0-0.263-0.258-0.394-1.224-0.394c-3.031,0-3.418-0.328-3.418-4.327V39.236c0-0.524,0.193-0.785,0.645-0.785l4.191-0.197
	c1.161-0.066,1.676,0.393,2.837,2.032l2.772,3.934l0.581,1.179c0.128,0.264,0.516,0.461,0.708,0.461
	C33.207,45.859,33.401,45.595,33.401,44.941"/>
<path d="M38.539,50.741c0,0.657-0.302,0.964-0.949,0.964h-5.214c-0.173,0-0.518,0.044-1.078,0.044
	c0.474-3.42,1.767-5.041,3.879-5.041C37.461,46.709,38.539,49.163,38.539,50.741 M43.582,58.456c0.043-0.265,0-0.483-0.086-0.483
	l-0.518-0.088c-0.172-0.043-0.258,0.088-0.474,0.438l-1.508,2.366c-1.509,2.369-3.275,3.332-4.698,3.332
	c-2.759,0-5.173-2.322-5.173-10.037c0-1.402,0.776-1.14,1.078-1.14h10.216c0.776,0,1.164-0.219,1.164-0.657
	c0-3.506-3.922-6.399-7.931-6.399c-6.725,0-9.44,5.479-9.44,9.38c0,6.706,5.431,9.73,9.915,9.73c1.638,0,3.577-0.482,4.871-0.877
	c1.077-0.352,1.724-0.395,1.81-1.053L43.582,58.456z"/>
<path d="M108.938,46.313c0-0.219-0.088-0.264-0.301-0.264l-3.924,0.133l-3.838-0.088c-0.688,0-0.775,0.088-0.775,0.395
	c0,0.263,0.26,0.394,0.734,0.394h0.303c0.731,0,1.594,0.701,1.594,1.622c0.043,4.12-0.388,12.799-3.188,14.2
	c-2.804-1.401-3.364-10.08-3.405-14.2c0-0.921,0.86-1.622,1.596-1.622h0.302c0.474,0,0.731-0.131,0.731-0.394
	c0-0.307-0.086-0.395-0.775-0.395l-3.838,0.088l-3.92-0.133c-0.217,0-0.303,0.045-0.303,0.264c0,0.176,0.086,0.396,0.603,0.481
	l0.69,0.088c0.517,0.044,0.561,1.052,0.604,1.359c0.344,4.12,1.078,7.145,2.111,9.424c-0.817,2.278-2.242,4.076-3.448,5.04
	c-2.759-1.796-3.404-10.08-3.404-14.2v-1.972c0-0.307-0.39-0.438-1.207-0.438L81.18,46.05c-0.216,0-0.303,0.045-0.303,0.265
	c0,0.175,0.087,0.395,0.604,0.48l0.689,0.088c0.518,0.044,0.561,1.053,0.604,1.359c0.732,9.38,3.621,12.974,7.716,15.867
	c1.681-1.404,3.019-3.156,4.095-5.26c1.293,2.323,3.02,3.855,4.959,5.26c4.096-2.894,6.768-6.487,7.5-15.867
	c0.041-0.307,0.086-1.314,0.604-1.359l0.689-0.088C108.85,46.708,108.938,46.488,108.938,46.313"/>
<path d="M122.811,50.564c0,0.658-0.302,0.965-0.949,0.965h-5.215c-0.172,0-0.517,0.043-1.078,0.043c0.475-3.42,1.769-5.04,3.88-5.04
	C121.732,46.532,122.811,48.986,122.811,50.564 M127.854,58.279c0.043-0.264,0-0.482-0.086-0.482l-0.519-0.088
	c-0.171-0.043-0.258,0.088-0.474,0.439l-1.508,2.367c-1.51,2.366-3.275,3.33-4.699,3.33c-2.758,0-5.172-2.322-5.172-10.037
	c0-1.402,0.775-1.14,1.076-1.14h10.217c0.774,0,1.164-0.22,1.164-0.657c0-3.508-3.924-6.4-7.932-6.4
	c-6.724,0-9.439,5.479-9.439,9.38c0,6.707,5.431,9.731,9.914,9.731c1.638,0,3.578-0.482,4.871-0.878
	c1.075-0.35,1.724-0.394,1.811-1.052L127.854,58.279z"/>
</svg>
