<?xml version="1.0" encoding="UTF-8"?>
<svg width="126px" height="63px" viewBox="0 0 126 63" version="1.1" xmlns="http://www.w3.org/2000/svg" xmlns:xlink="http://www.w3.org/1999/xlink">
    <!-- Generator: Sketch 44.1 (41455) - http://www.bohemiancoding.com/sketch -->
    <title>Te_Awe_logo</title>
    <desc>Created with Sketch.</desc>
    <defs></defs>
    <g id="Page-1" stroke="none" stroke-width="1" fill="none" fill-rule="evenodd">
        <g id="Te_Awe_logo" transform="translate(0.000000, -1.000000)" fill-rule="nonzero" fill="#FFFFFF">
            <path d="M71.458,13.75 C70.634,12.535 62.518,21.327 63.266,19.619 C64.014,17.911 69.859,8.639 69.204,5.99 C68.55,3.34 59.329,17.342 59.143,16.306 C58.956,15.269 64.593,-0.652 60.462,1.716 C57.764,3.26 52.63,16.157 52.63,16.157 C52.63,16.157 55.609,1.066 54.2,0.969 C49.358,0.636 43.541,21.882 43.429,22.294 C43.429,22.311 43.424,22.313 43.424,22.313 C43.424,22.313 43.428,22.298 43.429,22.294 C43.43,22.226 43.352,21.857 42.522,19.815 C40.529,14.915 39.428,7.968 37.175,15.646 C33.871,26.912 41.038,43.509 43.758,45.405 C44.038,45.599 44.379,45.773 44.749,45.935 C51.979,42.964 60.136,38.334 59.683,33.484 C58.943,25.565 50.046,26.008 48.293,28.295 C44.137,33.716 50.569,36.493 52.386,33.805 C54.203,31.117 51.704,28.992 51.704,28.992 C53.151,29.455 55.133,29.702 55.689,31.971 C56.244,34.242 56.241,37.146 51.573,39.308 C46.727,41.551 42.019,35.904 42.004,32.135 C41.981,26.249 44.798,21.916 52.588,21.916 C58.758,21.916 63.483,24.383 65.979,28.425 C66.362,27 66.731,25.718 67.024,24.833 C68.063,21.712 72.82,15.765 71.458,13.75" id="Shape"></path>
            <path d="M66.398,41.368 L70.265,51.464 C70.329,51.595 70.329,51.727 70.329,51.793 C70.329,52.186 69.877,52.383 69.039,52.383 L64.785,52.383 C63.107,52.383 62.333,52.121 62.333,51.662 C62.333,51.072 62.655,50.285 62.784,50.021 L66.398,41.368 Z M62.142,62.479 C60.724,62.479 58.274,61.561 59.112,59.463 L60.659,55.594 C61.175,54.348 61.24,54.348 61.433,54.151 C61.626,53.956 62.594,53.824 63.497,53.824 L69.75,53.824 C71.169,53.824 71.361,54.218 72.07,55.856 L73.941,60.249 C74.328,61.167 74.07,61.758 72.715,62.02 L70.847,62.414 C70.073,62.545 69.877,62.545 69.877,62.873 C69.877,63.201 70.071,63.397 70.587,63.397 L78.775,63.134 L84.255,63.266 C84.644,63.266 84.771,63.134 84.771,62.741 C84.771,62.217 84.58,62.085 83.482,62.085 C82.386,62.085 81.226,61.299 80.58,59.724 L71.748,38.548 C71.49,37.958 71.426,36.91 71.426,36.517 C71.426,35.599 71.297,35.075 70.975,35.075 C70.653,35.075 70.137,35.271 69.815,35.337 L62.336,36.518 C62.143,36.518 62.014,36.78 62.014,36.912 C62.014,37.239 62.53,37.501 63.11,37.763 L64.592,38.419 C65.431,38.812 65.366,39.14 65.301,39.336 L57.242,59.069 C56.21,61.627 54.792,62.282 53.632,62.347 C52.472,62.413 51.827,62.284 51.827,62.938 C51.827,63.332 52.279,63.397 52.923,63.397 C53.567,63.397 55.824,63.069 57.242,63.069 C58.274,63.069 62.142,63.528 62.852,63.463 C63.367,63.398 63.625,63.201 63.625,62.808 C63.625,62.546 63.497,62.48 63.239,62.48 L62.143,62.48 L62.143,62.479 L62.142,62.479 Z" id="Shape"></path>
            <path d="M31.401,43.941 C31.401,43.613 31.401,43.284 31.207,42.892 C31.014,42.3 30.82,41.251 30.627,39.744 L30.239,37.121 C30.046,36.008 29.852,35.68 29.079,35.68 C23.792,35.68 19.02,36.27 14.766,36.205 L7.673,36.139 C6.19,36.139 5.287,35.876 2.515,35.876 C1.354,35.876 0.967,36.532 0.58,40.072 C0.258,43.22 0,43.811 0,44.334 C0,44.729 0.258,45.055 0.58,45.055 C0.709,45.055 0.967,44.923 1.096,44.729 L5.352,38.302 C5.803,37.647 6.577,37.319 9.026,37.319 L11.476,37.319 C12.25,37.319 12.638,37.908 12.638,39.09 L12.638,59.545 C12.638,61.708 12.25,62.299 9.348,62.692 C8.446,62.756 8.188,62.823 8.188,63.086 L8.188,63.61 C8.188,63.873 8.703,63.742 9.22,63.742 L22.696,63.742 C23.147,63.742 23.662,63.807 23.662,63.61 L23.726,63.02 C23.726,62.757 23.468,62.626 22.502,62.626 C19.471,62.626 19.084,62.298 19.084,58.299 L19.084,38.236 C19.084,37.712 19.277,37.451 19.729,37.451 L23.92,37.254 C25.081,37.188 25.596,37.647 26.757,39.286 L29.529,43.22 L30.11,44.399 C30.238,44.663 30.626,44.86 30.818,44.86 C31.207,44.859 31.401,44.595 31.401,43.941" id="Shape"></path>
            <path d="M36.539,49.741 C36.539,50.398 36.237,50.705 35.59,50.705 L30.376,50.705 C30.203,50.705 29.858,50.749 29.298,50.749 C29.772,47.329 31.065,45.708 33.177,45.708 C35.461,45.709 36.539,48.163 36.539,49.741 L36.539,49.741 Z M41.582,57.456 C41.625,57.191 41.582,56.973 41.496,56.973 L40.978,56.885 C40.806,56.842 40.72,56.973 40.504,57.323 L38.996,59.689 C37.487,62.058 35.721,63.021 34.298,63.021 C31.539,63.021 29.125,60.699 29.125,52.984 C29.125,51.582 29.901,51.844 30.203,51.844 L40.419,51.844 C41.195,51.844 41.583,51.625 41.583,51.187 C41.583,47.681 37.661,44.788 33.652,44.788 C26.927,44.788 24.212,50.267 24.212,54.168 C24.212,60.874 29.643,63.898 34.127,63.898 C35.765,63.898 37.704,63.416 38.998,63.021 C40.075,62.669 40.722,62.626 40.808,61.968 L41.582,57.456 Z" id="Shape"></path>
            <path d="M106.938,45.313 C106.938,45.094 106.85,45.049 106.637,45.049 L102.713,45.182 L98.875,45.094 C98.187,45.094 98.1,45.182 98.1,45.489 C98.1,45.752 98.36,45.883 98.834,45.883 L99.137,45.883 C99.868,45.883 100.731,46.584 100.731,47.505 C100.774,51.625 100.343,60.304 97.543,61.705 C94.739,60.304 94.179,51.625 94.138,47.505 C94.138,46.584 94.998,45.883 95.734,45.883 L96.036,45.883 C96.51,45.883 96.767,45.752 96.767,45.489 C96.767,45.182 96.681,45.094 95.992,45.094 L92.154,45.182 L88.234,45.049 C88.017,45.049 87.931,45.094 87.931,45.313 C87.931,45.489 88.017,45.709 88.534,45.794 L89.224,45.882 C89.741,45.926 89.785,46.934 89.828,47.241 C90.172,51.361 90.906,54.386 91.939,56.665 C91.122,58.943 89.697,60.741 88.491,61.705 C85.732,59.909 85.087,51.625 85.087,47.505 L85.087,45.533 C85.087,45.226 84.697,45.095 83.88,45.095 L79.18,45.05 C78.964,45.05 78.877,45.095 78.877,45.315 C78.877,45.49 78.964,45.71 79.481,45.795 L80.17,45.883 C80.688,45.927 80.731,46.936 80.774,47.242 C81.506,56.622 84.395,60.216 88.49,63.109 C90.171,61.705 91.509,59.953 92.585,57.849 C93.878,60.172 95.605,61.704 97.544,63.109 C101.64,60.215 104.312,56.622 105.044,47.242 C105.085,46.935 105.13,45.928 105.648,45.883 L106.337,45.795 C106.85,45.708 106.938,45.488 106.938,45.313" id="Shape"></path>
            <path d="M120.811,49.564 C120.811,50.222 120.509,50.529 119.862,50.529 L114.647,50.529 C114.475,50.529 114.13,50.572 113.569,50.572 C114.044,47.152 115.338,45.532 117.449,45.532 C119.732,45.532 120.811,47.986 120.811,49.564 L120.811,49.564 Z M125.854,57.279 C125.897,57.015 125.854,56.797 125.768,56.797 L125.249,56.709 C125.078,56.666 124.991,56.797 124.775,57.148 L123.267,59.515 C121.757,61.881 119.992,62.845 118.568,62.845 C115.81,62.845 113.396,60.523 113.396,52.808 C113.396,51.406 114.171,51.668 114.472,51.668 L124.689,51.668 C125.463,51.668 125.853,51.448 125.853,51.011 C125.853,47.503 121.929,44.611 117.921,44.611 C111.197,44.611 108.482,50.09 108.482,53.991 C108.482,60.698 113.913,63.722 118.396,63.722 C120.034,63.722 121.974,63.24 123.267,62.844 C124.342,62.494 124.991,62.45 125.078,61.792 L125.854,57.279 Z" id="Shape"></path>
        </g>
    </g>
</svg>